<?xml version="1.0" encoding="UTF-8" standalone="no"?>
<svg
   xmlns:dc="http://purl.org/dc/elements/1.1/"
   xmlns:cc="http://creativecommons.org/ns#"
   xmlns:rdf="http://www.w3.org/1999/02/22-rdf-syntax-ns#"
   xmlns:svg="http://www.w3.org/2000/svg"
   xmlns="http://www.w3.org/2000/svg"
   xmlns:sodipodi="http://sodipodi.sourceforge.net/DTD/sodipodi-0.dtd"
   xmlns:inkscape="http://www.inkscape.org/namespaces/inkscape"
   sodipodi:docname="Carmen's Kitchen.svg"
   inkscape:version="1.0 (4035a4fb49, 2020-05-01)"
   id="svg9194"
   version="1.1"
   viewBox="0 0 210 297"
   height="297mm"
   width="210mm">
  <defs
     id="defs9188" />
  <sodipodi:namedview
     inkscape:window-maximized="1"
     inkscape:window-y="-11"
     inkscape:window-x="1909"
     inkscape:window-height="1106"
     inkscape:window-width="1600"
     showgrid="false"
     inkscape:document-rotation="0"
     inkscape:current-layer="layer6"
     inkscape:document-units="mm"
     inkscape:cy="628.30523"
     inkscape:cx="986.59537"
     inkscape:zoom="0.36274096"
     inkscape:pageshadow="2"
     inkscape:pageopacity="0.0"
     borderopacity="1.0"
     bordercolor="#666666"
     pagecolor="#ffffff"
     id="base" />
  <metadata
     id="metadata9191">
    <rdf:RDF>
      <cc:Work
         rdf:about="">
        <dc:format>image/svg+xml</dc:format>
        <dc:type
           rdf:resource="http://purl.org/dc/dcmitype/StillImage" />
        <dc:title />
      </cc:Work>
    </rdf:RDF>
  </metadata>
  <g
     id="layer1"
     inkscape:groupmode="layer"
     inkscape:label="RoundBase"
     style="display:none">
    <circle
       style="fill:#ffffff;fill-opacity:1;stroke:#0b0b0b;stroke-width:3.53094;stroke-miterlimit:4;stroke-dasharray:none;stroke-opacity:0.98"
       id="path556"
       cx="105"
       cy="148.5"
       r="72.775032" />
  </g>
  <g
     inkscape:groupmode="layer"
     id="layer2"
     inkscape:label="Carmen"
     style="display:inline">
    <path
       id="path9210"
       d="m 85.505744,202.6918 c -0.7795,-0.20794 -1.69253,-0.62512 -2.35846,-1.07763 -1.04709,-0.71152 -2.96908,-2.64725 -4.14601,-4.17566 -0.32193,-0.41808 -0.66244,-0.84629 -0.75668,-0.95158 -0.1745,-0.19493 -2.05731,-2.99444 -4.86252,-7.22994 -0.8574,-1.29458 -1.64642,-2.38161 -1.75336,-2.41564 -0.22511,-0.0716 -0.46346,1.26871 -0.74844,4.20902 -0.14079,1.45249 -0.14192,2.34026 -0.004,3.36305 0.36809,2.7351 0.28672,3.02509 -0.84872,3.02509 -1.05325,0 -2.00119,-0.85232 -2.56134,-2.30298 -0.42822,-1.10896 -0.68173,-4.10658 -0.56266,-6.65329 l 0.10676,-2.28391 -1.02298,-0.19441 c -1.58034,-0.30033 -2.80714,-1.42056 -2.98181,-2.72275 -0.0698,-0.52032 -0.006,-0.70605 0.37239,-1.08445 0.63296,-0.63298 2.09067,-1.14353 3.26491,-1.14353 h 0.97235 l 0.19625,-0.97129 c 0.10794,-0.53422 0.3176,-1.65543 0.4659,-2.49159 0.28842,-1.62627 0.6762,-3.60295 0.93662,-4.77443 0.0881,-0.39619 0.16012,-0.8595 0.16012,-1.02958 0,-0.56638 0.59934,-0.91662 1.56851,-0.91662 1.21855,0 2.22648,0.58622 2.75507,1.60239 0.39314,0.75576 0.43344,0.45252 -1.00547,7.56759 -0.44532,2.20205 -0.51632,2.79858 -0.33816,2.84142 0.22738,0.0547 2.51286,-1.38761 3.60797,-2.27686 1.18724,-0.96407 2.92945,-2.70066 3.69336,-3.6814 1.97361,-2.53388 2.67442,-4.20317 2.84012,-6.76502 0.12203,-1.88679 0.24664,-2.0972 1.24726,-2.10614 0.69922,-0.007 1.26163,0.43913 1.6113,1.27601 0.55576,1.33011 0.3111,3.99697 -0.5165,5.63016 -0.32294,0.6373 -0.3818,0.88533 -0.22298,0.93959 0.50817,0.17362 5.51286,0.59491 7.06724,0.59491 h 1.69628 l 0.22921,-0.54899 c 0.23393,-0.56033 1.00903,-3.31858 1.31657,-4.68509 0.24562,-1.09145 0.57631,-1.52276 1.16752,-1.52276 1.15441,0 2.17107,1.08036 2.16477,2.30037 -0.002,0.36067 -0.19037,1.37789 -0.41891,2.2605 -0.22854,0.88261 -0.41706,1.74712 -0.41892,1.92114 -0.003,0.30545 0.18234,0.31179 5.359836,0.18331 2.94979,-0.0732 5.6673,-0.13957 6.03892,-0.14747 l 0.67569,-0.0144 0.25431,-1.2669 c 0.13986,-0.6968 0.31539,-1.36192 0.39004,-1.47805 0.3724,-0.57934 2.8741,0.0507 3.31412,0.83467 0.23056,0.41077 0.21127,0.60245 -0.22916,2.27738 -2.42315,9.21534 -2.96917,11.99241 -2.96917,15.10139 0,1.16695 0.0525,1.50806 0.23227,1.50806 0.12774,0 0.28036,-0.24047 0.33915,-0.53438 0.30993,-1.54972 2.6135,-7.33194 3.27789,-8.22791 0.40484,-0.54596 0.45731,-0.56551 1.2621,-0.47019 0.91884,0.10882 2.05114,0.59428 2.61807,1.12246 0.52089,0.48528 0.70129,1.30874 0.52188,2.38221 -0.084,0.50246 -0.22634,1.44567 -0.31636,2.09601 -0.09,0.65035 -0.23533,1.60053 -0.32292,2.11151 -0.86581,5.05125 -0.87934,5.17312 -0.82531,7.42995 l 0.0545,2.27786 -0.4223,0.20055 c -0.50925,0.24187 -1.6444,0.068 -2.28161,-0.34957 -1.26406,-0.82825 -1.40472,-2.41486 -0.58532,-6.60267 0.0909,-0.46453 0.27647,-1.41471 0.4124,-2.11151 0.13592,-0.6968 0.43973,-2.19325 0.67516,-3.32544 0.53254,-2.56131 0.54878,-3.40698 0.0751,-3.91537 -0.47404,-0.50881 -0.68844,-0.39597 -0.94112,0.49533 -0.11676,0.41184 -0.51958,1.77498 -0.89516,3.02922 -0.88339,2.95009 -1.52711,5.50826 -1.52711,6.06873 0,1.02368 -0.74666,1.43314 -2.139,1.17303 -1.40541,-0.26257 -2.1127,-1.45665 -2.39051,-4.03586 l -0.13608,-1.26331 -0.32771,0.57098 c -1.85987,3.24054 -3.32412,4.55544 -5.24449,4.70959 -0.8691,0.0697 -1.15271,0.023 -1.622917,-0.26761 -0.844494,-0.52192 -1.417849,-1.23969 -1.940769,-2.42958 -0.44345,-1.00902 -0.46692,-1.19196 -0.46169,-3.5969 0.006,-2.4537 0.0228,-2.57732 0.55184,-3.90958 0.855505,-2.15442 2.156066,-3.97686 3.236936,-4.5358 0.59396,-0.30715 1.89081,-0.48002 2.53674,-0.33815 0.44752,0.0983 0.61156,0.27578 0.96157,1.04028 0.52965,1.1569 0.73489,2.929 0.33922,2.929 -0.3084,0 -0.79567,-0.44357 -0.79567,-0.72433 0,-0.43831 -0.56887,-1.64056 -0.77626,-1.64056 -0.42492,0 -1.07557,0.92152 -1.48666,2.10558 -0.78539,2.26222 -1.01698,3.6004 -1.02419,5.91817 -0.006,1.91606 0.0373,2.27132 0.33925,2.78718 0.64098,1.09491 2.19978,0.77828 3.54735,-0.72055 1.14947,-1.27849 2.38383,-3.94521 2.52038,-5.44506 0.18504,-2.03262 0.40627,-3.24186 1.36848,-7.48033 0.34342,-1.5128 0.5874,-2.78756 0.54217,-2.83279 -0.0452,-0.0452 -0.7205,0.072 -1.50063,0.2604 -1.71351,0.41392 -5.85792,1.0974 -8.175207,1.34823 -3.130349,0.33882 -2.905779,0.25135 -3.191869,1.24324 -2.11352,7.32759 -2.87343,12.09638 -2.48196,15.5753 0.11094,0.98594 0.27372,1.98203 0.36173,2.21352 0.31466,0.8276 0.21453,1.07459 -0.43564,1.07459 -1.30722,0 -2.68934,-2.17466 -3.10892,-4.89162 -0.10701,-0.69289 -0.22277,-1.28802 -0.25724,-1.32249 -0.0344,-0.0344 -0.48575,0.57044 -1.00282,1.34427 -1.10445,1.65289 -1.86987,2.24927 -2.83731,2.21069 -1.99324,-0.0795 -3.16759,-2.21183 -3.17496,-5.76496 -0.003,-1.61823 0.5635,-5.79876 0.9478,-6.98991 0.25117,-0.77853 0.27873,-0.80238 0.9277,-0.80238 0.81195,0 1.90202,0.52775 2.27925,1.10346 0.29459,0.4496 0.27831,0.85092 -0.11967,2.95063 -0.289,1.52473 -0.29635,6.15493 -0.011,6.96799 0.12224,0.3484 0.32123,0.63345 0.4422,0.63345 0.28177,0 1.21321,-1.15073 1.98258,-2.44935 0.52774,-0.89079 0.62486,-1.23817 0.80202,-2.86863 0.1879,-1.72937 0.67987,-4.26276 1.27188,-6.54946 0.62583,-2.41735 0.73306,-2.91261 0.65719,-3.03538 -0.0446,-0.0721 -0.76307,-0.13112 -1.59666,-0.13112 -1.28858,0 -1.53223,0.0443 -1.62654,0.29561 -0.34673,0.92404 -1.69286,0.97061 -3.39805,0.11753 -1.38265,-0.6917 -1.88589,-1.23625 -1.88589,-2.04067 0,-0.72359 -0.18394,-0.71765 -0.74978,0.0242 -1.17043,1.53451 -5.03634,4.98173 -5.5868,4.98173 -0.0771,0 -0.26028,0.10806 -0.40695,0.24011 -0.14668,0.13207 -1.12333,0.67178 -2.17034,1.19936 l -1.90368,0.95924 0.68414,0.78546 c 0.76226,0.87517 3.76501,4.58812 4.33313,5.35802 0.64556,0.87483 1.52194,2.03085 1.79337,2.36563 3.81647,4.70713 5.40967,5.9868 7.44879,5.98294 0.38317,-4.8e-4 1.26679,-0.13627 1.96359,-0.3012 1.4914,-0.35303 1.85836,-0.31585 1.85749,0.18822 -8.3e-4,0.85829 -1.50205,2.5204 -2.87102,3.18005 -0.82407,0.39709 -2.14895,0.54473 -2.95611,0.32942 z m -18.32054,-18.30242 c 0.003,-0.11614 0.0689,-0.52883 0.14405,-0.91711 0.0752,-0.38827 0.0797,-0.79821 0.01,-0.91098 -0.21103,-0.34145 -1.5582,-0.45689 -2.41532,-0.20697 -1.6424,0.47891 -1.36124,1.72746 0.48026,2.13267 0.75585,0.16633 1.77377,0.11053 1.78102,-0.0976 z m 74.148846,11.93943 c -2.54668,-1.11781 -2.81318,-3.98838 -1.017,-10.95464 0.28063,-1.08841 0.50688,-2.06881 0.50278,-2.17866 -0.011,-0.29197 -0.5331,0.74779 -1.34189,2.67193 -3.71029,8.82696 -4.26197,9.93833 -4.97471,10.02174 -1.34954,0.15792 -2.28223,-0.75322 -2.70519,-2.64271 -0.4315,-1.92771 -0.40002,-1.88533 -0.90134,-1.21343 -2.00225,2.68355 -4.26841,3.66699 -6.62365,2.87444 -1.68739,-0.56782 -2.59612,-1.34408 -3.38208,-2.88904 -1.07893,-2.12085 -0.72429,-4.92494 1.04323,-8.24878 1.52598,-2.86965 2.8332,-3.87536 5.05861,-3.89189 2.40932,-0.0179 3.38469,1.10601 3.12865,3.60508 -0.16932,1.65259 -0.56811,2.6103 -1.45717,3.49935 -0.91276,0.91276 -1.59169,1.10074 -3.31075,0.91665 l -1.08049,-0.11572 v 1.27402 c 0,1.46591 0.40453,2.74831 1.14778,3.63861 0.41435,0.49633 0.60046,0.58129 1.42257,0.64946 0.76015,0.0631 1.1019,4.8e-4 1.74072,-0.31854 0.81949,-0.40927 2.36961,-1.95377 2.61886,-2.60937 0.0776,-0.20405 0.18399,-1.49708 0.23645,-2.87339 0.0525,-1.37631 0.1592,-2.56618 0.23718,-2.64416 0.25084,-0.25083 2.27566,-0.18898 2.93683,0.0897 0.83995,0.35405 0.91858,0.76831 0.58017,3.05663 -0.39833,2.69347 -0.5248,4.32478 -0.33531,4.32478 0.16218,0 0.24699,-0.17199 1.29117,-2.61827 0.90746,-2.12601 2.78029,-5.77886 3.60344,-7.02831 0.87279,-1.32483 1.83919,-2.3181 2.39149,-2.45804 0.98497,-0.24954 2.95967,0.49723 3.14019,1.18751 0.0996,0.38094 -0.10948,1.28966 -0.99615,4.3292 -1.37648,4.71866 -1.6674,6.4048 -1.57383,9.12172 l 0.0553,1.60476 -0.4223,0.0393 c -0.23226,0.0217 -0.68836,-0.0774 -1.01353,-0.22006 z m -13.98439,-9.90018 c 1.16221,-1.35304 1.33004,-4.1958 0.24753,-4.19237 -0.3972,8.3e-4 -1.29782,0.67899 -1.77178,1.33329 -0.56681,0.78244 -1.4604,3.12057 -1.32625,3.47015 0.12684,0.33056 1.08572,0.40573 1.80094,0.1412 0.32517,-0.12026 0.79748,-0.45879 1.04956,-0.75227 z M 54.508774,166.31382 c -4.21133,-0.54213 -6.60441,-4.07336 -6.81826,-10.06102 -0.04,-1.11997 0.28314,-4.9615 0.495,-5.88465 0.55761,-2.42966 2.17981,-5.96672 3.705,-8.07842 1.71055,-2.36834 4.76226,-5.17214 6.88553,-6.32618 2.59786,-1.41199 5.76542,-1.93938 7.27091,-1.21059 0.61265,0.29657 0.8247,0.52406 1.11281,1.19377 0.42762,0.99406 0.44424,1.65769 0.0818,3.26521 -0.71702,3.18003 -3.91172,7.92483 -5.04341,7.49057 -0.46806,-0.17961 -0.25494,-1.12286 0.99795,-4.41665 0.96632,-2.5404 1.48685,-4.57744 1.3476,-5.27366 -0.27177,-1.35885 -2.59634,-0.60253 -4.72787,1.53825 -3.23667,3.25074 -5.5753,8.51073 -6.24209,14.03958 -0.64175,5.32131 0.0154,9.86098 1.68744,11.65644 0.96556,1.03684 1.39673,1.02228 2.26529,-0.0765 0.89577,-1.13322 2.45402,-4.22314 3.23121,-6.40725 0.70238,-1.9739 0.88146,-2.13097 1.85535,-1.62736 1.20346,0.62234 1.48052,2.00014 0.77769,3.86737 -1.82883,4.85876 -4.64113,6.85706 -8.88193,6.31114 z m 21.96461,-0.5699 c -1.13162,-0.47581 -1.83689,-1.92503 -2.29048,-4.70656 -0.0605,-0.37092 -0.14886,-0.73732 -0.1964,-0.81421 -0.0476,-0.0769 -0.4777,0.51274 -0.95595,1.31032 -1.03883,1.73247 -1.70602,2.48769 -2.55263,2.88943 -0.54022,0.25636 -0.76929,0.27263 -1.61748,0.11489 -0.54348,-0.10107 -1.22816,-0.3602 -1.5215,-0.57584 -2.2518,-1.65532 -1.84908,-6.9615 0.87201,-11.48896 0.9339,-1.55387 1.90347,-2.57685 3.10545,-3.2765 0.82472,-0.48007 0.90098,-0.49164 3.23934,-0.49164 2.17069,0 2.43935,0.0333 2.87165,0.3555 0.71534,0.53323 1.0376,1.21189 1.16475,2.45294 0.10347,1.00997 0.0787,1.15486 -0.25492,1.48845 -0.57711,0.5771 -0.76156,0.36023 -0.86441,-1.01631 -0.14326,-1.91746 -0.54043,-2.3732 -1.77189,-2.03317 -1.21146,0.33449 -2.55529,1.63312 -3.75315,3.6269 -1.51963,2.52934 -2.62524,6.84653 -2.32061,9.06151 0.15207,1.10557 0.58985,1.39972 1.21598,0.817 0.84273,-0.78432 2.77391,-5.2395 3.2765,-7.55882 0.19362,-0.89353 0.32364,-1.13906 0.74278,-1.40276 0.71428,-0.44937 2.34004,-0.35445 3.09131,0.1805 0.65176,0.46409 0.65957,0.58737 0.27167,4.28866 -0.14858,1.41767 -0.22298,2.98466 -0.16536,3.48218 0.10635,0.91821 0.34085,1.54475 0.57814,1.54475 0.15191,0 1.44256,-2.14804 2.19674,-3.6561 0.46592,-0.9316 0.53714,-1.28602 0.69602,-3.46287 0.26065,-3.57152 0.85283,-6.63755 1.55546,-8.05349 0.38623,-0.77832 0.40433,-0.79015 1.17023,-0.7653 1.07239,0.0349 1.81129,0.4552 2.12662,1.20988 0.24682,0.59074 0.23344,0.71755 -0.27068,2.56483 -0.51891,1.90136 -0.86556,4.1415 -0.84969,5.49069 0.007,0.66052 0.0175,0.64915 0.43541,-0.50677 0.43161,-1.19387 0.50945,-1.37752 1.68245,-3.96963 0.89899,-1.98662 2.16598,-4.11417 2.86825,-4.81646 0.48756,-0.48756 0.71171,-0.58869 1.3013,-0.58716 1.24269,0.003 1.96386,0.19787 2.42162,0.65352 0.42892,0.42695 0.4413,0.49344 0.34969,1.87844 -0.14279,2.15884 -0.75985,3.70951 -1.74467,4.38432 -0.47515,0.32557 -0.70217,0.37296 -1.35688,0.28322 -0.43244,-0.0593 -1.02091,-0.24573 -1.30769,-0.41436 -0.61377,-0.36089 -0.6569,-0.86691 -0.20847,-2.44553 0.15304,-0.53874 0.27826,-1.02313 0.27826,-1.07643 0,-0.21512 -0.5014,0.33712 -0.60637,0.66785 -0.062,0.19527 -0.40698,0.83587 -0.76668,1.42355 -0.3597,0.58768 -0.654,1.10533 -0.654,1.15032 0,0.0451 -0.36919,0.86079 -0.82043,1.81292 -1.74652,3.68524 -2.22543,5.93121 -1.71679,8.05144 0.26381,1.09969 0.0821,1.36557 -0.93338,1.36557 -0.53808,0 -0.86344,-0.11522 -1.25453,-0.4443 -0.64759,-0.54491 -1.30974,-1.81282 -1.45885,-2.79346 -0.17164,-1.12879 -0.29138,-1.22311 -0.65778,-0.51808 -0.60873,1.17135 -1.85387,2.99092 -2.46574,3.6033 -0.81842,0.81907 -1.4468,1.02769 -2.17422,0.72183 z m 72.782316,-0.2874 c -0.66168,-0.29693 -0.99589,-0.62523 -0.99589,-0.97825 0,-0.20893 0.12029,-0.31716 0.35247,-0.31716 1.0829,0 6.35279,-4.80561 5.96248,-5.43716 -0.0466,-0.0755 -0.7169,-0.13723 -1.48944,-0.13723 -1.55041,0 -2.54563,-0.27382 -3.4205,-0.9411 -0.89521,-0.68283 -1.11921,-1.28395 -1.02959,-2.76313 0.0652,-1.07512 0.19138,-1.50839 0.79219,-2.71882 0.86377,-1.74016 2.17382,-3.40017 3.28501,-4.16256 0.78492,-0.53853 0.88915,-0.56317 2.38355,-0.56317 2.13572,0 3.00773,0.14308 3.56104,0.58427 0.64049,0.51071 0.64109,1.51255 0.002,2.8149 -0.67144,1.36757 -3.00915,3.76535 -3.34428,3.43022 -0.0889,-0.0889 0.18749,-1.4801 0.55457,-2.79146 0.29642,-1.05889 0.16069,-1.37633 -0.49129,-1.14905 -1.63941,0.5715 -3.8629,4.37963 -3.23846,5.54642 0.15986,0.29868 0.34895,0.34888 1.32083,0.3506 1.79207,0.003 3.70588,0.6309 4.08538,1.34 0.34128,0.63769 0.19715,1.737 -0.35368,2.69761 -0.68274,1.19064 -2.78235,3.27597 -4.32574,4.29631 -1.68763,1.11571 -2.61337,1.34617 -3.61033,0.89876 z m -11.34389,-0.86117 c -1.95015,-0.69589 -2.71528,-2.29867 -2.45232,-5.13708 0.19996,-2.15833 0.92136,-5.66832 1.75881,-8.55745 0.086,-0.29687 0.0691,-0.30711 -0.14038,-0.0845 -0.25492,0.27106 -0.82495,1.54727 -3.01794,6.75684 -0.76264,1.81167 -1.65312,3.82605 -1.97885,4.4764 -0.32573,0.65035 -0.67649,1.35563 -0.77949,1.56731 -0.24397,0.50135 -0.81644,0.63692 -1.64334,0.38918 -1.10656,-0.33154 -1.86742,-1.67032 -2.26394,-3.98354 l -0.11582,-0.67569 -0.44698,0.59122 c -1.7831,2.35849 -3.44695,3.42099 -5.34009,3.41007 -2.80391,-0.0162 -5.05083,-1.81588 -5.76952,-4.62117 -0.62693,-2.4472 0.68285,-6.70353 2.9283,-9.51595 1.00586,-1.25983 1.9368,-1.75278 3.56843,-1.88958 2.49033,-0.20878 3.55356,0.54244 3.70189,2.61553 0.24963,3.48876 -1.70247,6.17413 -4.27469,5.88043 -0.46944,-0.0536 -1.09656,-0.14607 -1.39361,-0.20548 l -0.54007,-0.10801 0.004,1.16132 c 0.006,1.60595 0.24896,2.52981 0.94296,3.58139 1.02825,1.55802 2.26781,1.72228 4.0879,0.5417 0.84499,-0.54811 1.85512,-1.57261 2.28644,-2.31899 0.17977,-0.3111 0.49379,-4.90672 0.36951,-5.40802 -0.14436,-0.58229 0.4264,-0.78551 1.89432,-0.67449 1.26476,0.0956 1.99522,0.40226 2.19429,0.92107 0.0582,0.15173 -0.0212,1.15449 -0.17656,2.22836 -0.39406,2.72437 -0.54632,5.039 -0.31734,4.82414 0.099,-0.0929 0.56968,-1.0811 1.04594,-2.19598 1.84893,-4.32826 3.92874,-8.09194 5.36656,-9.71151 0.52598,-0.59246 0.75868,-0.72386 1.4121,-0.79741 0.85762,-0.0965 1.83306,0.15633 2.55385,0.66201 0.61157,0.42905 0.60498,0.97324 -0.0399,3.29841 -0.27743,1.0003 -0.811,2.9196 -1.18573,4.26513 -0.87215,3.13176 -1.21621,6.68637 -0.77928,8.0511 0.0752,0.23496 0.0207,0.45759 -0.15518,0.63346 -0.32325,0.32324 -0.47238,0.32665 -1.30442,0.0297 z m -15.86857,-9.62438 c 1.40526,-0.73116 2.44886,-3.32127 1.90381,-4.72505 -0.17192,-0.44276 -0.24329,-0.47713 -0.80232,-0.38642 -1.09921,0.17838 -2.0987,1.47623 -2.8595,3.71309 -0.38593,1.13467 -0.39376,1.22553 -0.1225,1.42386 0.38502,0.28154 1.31465,0.26894 1.88051,-0.0255 z m -26.315646,9.04384 c -0.8902,-0.93579 -1.10217,-1.84391 -1.08957,-4.66795 0.0188,-4.20303 0.20747,-7.06145 0.47614,-7.2118 0.46761,-0.26168 2.20421,0.0523 2.90188,0.52472 0.815005,0.55184 0.882675,0.95951 0.501755,3.02278 -0.662335,3.58763 -0.814575,4.7623 -0.617165,4.7623 0.0837,0 0.20245,-0.26833 0.26397,-0.59628 0.1985,-1.05805 1.936266,-6.12343 2.627166,-7.65781 0.97896,-2.17414 1.50957,-3.06015 2.31522,-3.86599 0.5915,-0.59163 0.82997,-0.71779 1.35565,-0.71727 2.59477,0.002 3.20162,3.34547 1.80389,9.93697 -0.4686,2.20983 -0.45622,2.10685 -0.23689,1.97129 0.0929,-0.0574 0.6904,-1.15422 1.32773,-2.43733 1.31253,-2.64238 2.2512,-4.13727 2.84025,-4.52324 0.49458,-0.32405 2.04616,-0.18972 2.77389,0.24016 0.82242,0.48582 0.92845,1.03617 0.52361,2.71789 -0.62183,2.58307 -0.73333,3.57473 -0.68999,6.13613 0.0233,1.37881 -0.008,2.55761 -0.0702,2.61956 -0.0619,0.0619 -0.32274,0.10653 -0.57954,0.0991 -1.90363,-0.0553 -2.9149,-2.07654 -2.96287,-5.92184 -0.0129,-1.03618 -0.0788,-1.82753 -0.14639,-1.75855 -0.0676,0.069 -0.54355,1.0376 -1.05771,2.15247 -1.15752,2.50991 -2.08175,4.20856 -2.58579,4.75243 -0.32738,0.35325 -0.47962,0.39807 -1.01915,0.30003 -1.01344,-0.18413 -1.77443,-0.61571 -2.20714,-1.25174 -0.36349,-0.53424 -0.392,-0.7078 -0.29584,-1.80091 0.10779,-1.22563 0.15933,-1.49707 1.08511,-5.71606 0.83764,-3.81741 1.06388,-5.68679 0.71437,-5.90282 -0.4891,-0.30227 -1.18376,0.65248 -1.95963,2.69332 -0.24724,0.65035 -0.55116,1.4485 -0.6754,1.77367 -0.12423,0.32517 -0.53743,1.65542 -0.91821,2.95612 -1.240681,4.23788 -1.541751,5.22303 -1.875986,6.1384 -0.18112,0.49603 -0.32931,1.12314 -0.32931,1.3936 0,0.4726 -0.0306,0.49174 -0.78631,0.49174 -0.69306,0 -0.85995,-0.0774 -1.40753,-0.65307 z m 49.322736,-18.59567 c 0,-0.27418 0.11681,-0.93931 0.25962,-1.47806 0.14279,-0.53875 0.30654,-1.89171 0.36389,-3.00658 l 0.10427,-2.02706 0.62976,-0.63345 c 0.52593,-0.52902 0.74529,-0.63345 1.3306,-0.63345 0.46045,0 0.73352,0.0851 0.79605,0.24804 0.16375,0.42671 -0.29726,4.51578 -0.63119,5.59865 -0.38054,1.23403 -0.85548,1.88266 -1.60904,2.19752 -0.9143,0.38201 -1.24396,0.31162 -1.24396,-0.26561 z"
       style="display:inline;fill:#000000;stroke-width:0.168921"
       sodipodi:nodetypes="csssssscssscsssscsssssssssssssssscssscscsscsssssssssssssscssssssssssscsssssssssssssscssssssssssssssssssssssssssssssssscssccscsccsscsssssssssssssssssscsssssssssssssssscsssscsssssssssssssssssssssssscsssssssssssssssssssssssssssssssscssssssssssssssssssccssssssssscsssscssscccsssssssscssssssssccssssssssssssssssccsssssssssssssssscsssssssssssssssssssssssssssccsssssssc" />
  </g>
  <g
     inkscape:groupmode="layer"
     id="layer3"
     inkscape:label="Hat"
     style="display:none">
    <path
       style="display:inline;fill:#000000;stroke-width:0.176151"
       d="m 97.102812,138.5722 c -0.836502,-0.19823 -1.445726,-0.79155 -1.642103,-1.59917 -0.0753,-0.30932 -0.192814,-1.52504 -0.261387,-2.70136 -0.06865,-1.17655 -0.144534,-2.15224 -0.168775,-2.16839 -0.02425,-0.0151 -0.326514,0.13371 -0.67168,0.3314 -0.345153,0.19817 -1.166862,0.5014 -1.825973,0.67382 -1.502583,0.39288 -2.688896,0.22134 -4.177486,-0.60407 -0.586836,-0.32548 -1.402714,-0.66435 -1.813064,-0.75336 -1.302598,-0.28229 -2.798883,-1.39287 -3.569726,-2.64967 -1.243343,-2.02718 -1.578986,-5.44353 -0.729632,-7.42643 0.197593,-0.46139 0.804177,-1.43171 1.347952,-2.15654 0.543797,-0.72483 1.125567,-1.64882 1.292838,-2.05339 0.609624,-1.47444 1.726696,-3.10326 2.747751,-4.00696 1.207494,-1.0686 3.226679,-2.34537 4.500649,-2.84569 0.964103,-0.37864 1.566139,-0.82468 1.814868,-1.34483 0.291693,-0.61001 1.905308,-2.04952 3.291371,-2.93643 4.455395,-2.85083 10.794465,-4.08089 15.380535,-2.98443 1.12407,0.26873 1.61619,0.28445 2.76444,0.0883 4.10922,-0.70226 8.67406,0.53629 10.70363,2.90412 1.58676,1.85135 2.21974,4.195 1.7593,6.51473 -0.15688,0.79007 -0.14496,1.37694 0.0433,2.18968 0.15863,0.68092 0.19889,1.36023 0.1037,1.75672 -0.39382,1.65093 -2.22738,3.70289 -3.90185,4.3665 -1.55648,0.61695 -1.66138,0.69135 -1.55458,1.1043 0.056,0.21459 0.0618,0.67462 0.0136,1.02224 -0.0487,0.34765 0.0742,2.0154 0.27346,3.70631 0.40253,3.43162 0.5073,3.61 -1.20159,-2.04485 l -0.88801,-2.93836 -0.91416,-0.17601 c -1.32995,-0.25612 -4.24561,-0.33317 -6.29493,-0.16652 -5.17909,0.42132 -11.34227,2.27912 -16.539373,4.98551 -1.544335,0.80438 -2.003634,1.4301 -1.756165,2.39278 0.187133,0.72738 0.412732,0.7569 1.113869,0.14506 0.913178,-0.79645 3.118995,-2.0225 5.168239,-2.87258 4.10719,-1.70376 11.78967,-2.97027 17.70829,-2.91953 0.75145,0.006 1.14271,0.50214 0.40786,0.51669 -1.07304,0.0221 -4.76649,0.388 -6.90545,0.68555 -5.18974,0.72221 -8.99126,1.74034 -12.10738,3.24284 -1.421884,0.68571 -3.343542,2.0556 -3.623648,2.58333 -0.16465,0.31026 0.0091,5.22744 0.188727,5.32486 0.03706,0.0209 0.592156,-0.24761 1.23358,-0.59504 3.104911,-1.68157 9.049811,-3.61049 12.769251,-4.14304 3.67977,-0.52704 8.45059,-0.50968 10.97724,0.039 0.53257,0.11526 0.80172,0.20239 0.59812,0.19239 -5.58434,-0.27322 -11.96725,0.64129 -17.09605,2.44955 -3.81143,1.34373 -7.250158,2.9222 -6.866421,3.15211 0.0796,0.0473 0.526677,0.11501 0.993444,0.15088 l 0.848667,0.065 -1.064347,0.75914 c -1.254811,0.89526 -1.509941,0.97188 -2.472509,0.74368 z m -3.56916,-7.77719 c 0.589067,-0.33506 0.594409,-0.3519 0.377096,-1.19178 -0.121282,-0.46869 -0.178441,-1.02126 -0.127143,-1.22823 0.07473,-0.30102 0.02672,-0.38054 -0.239895,-0.39743 -2.985248,-0.18964 -6.070181,-2.12291 -6.732918,-4.21934 -0.120217,-0.38041 -0.416079,-0.94415 -0.65745,-1.25287 -0.241367,-0.3087 -0.528416,-0.90754 -0.637901,-1.33067 -0.109483,-0.42327 -0.261103,-0.75374 -0.33695,-0.73448 -0.177474,0.0446 -0.826228,1.21732 -1.130646,2.04315 -0.672128,1.82335 -0.220314,4.9827 0.900312,6.29541 0.580356,0.67985 1.74399,1.24632 2.899982,1.41196 0.365408,0.0513 0.881394,0.29801 1.146615,0.54615 1.025583,0.95907 2.91204,0.98327 4.538872,0.0593 z m 31.111938,-12.08053 c 1.51875,-1.32889 1.99424,-3.02719 0.99363,-3.54889 -0.4144,-0.21622 -0.41528,-0.22232 -0.11557,-0.83868 0.64084,-1.31686 0.77192,-2.4908 0.45146,-4.04404 -0.24879,-1.20527 -0.41229,-1.61769 -0.93451,-2.3553 -1.4127,-1.99528 -4.98834,-3.16698 -8.73687,-2.863 l -0.58219,0.0471 0.74712,0.84633 c 0.58842,0.66656 1.7131,2.30162 1.79146,2.60449 0.008,0.0296 -0.0832,0.0779 -0.2006,0.10776 -0.11844,0.0299 -0.60355,-0.37826 -1.07896,-0.9063 -1.72927,-1.92051 -4.91106,-3.08608 -8.30492,-3.04238 -2.91925,0.0378 -6.71376,1.03554 -9.327494,2.45312 -1.256384,0.68143 -3.195642,2.29526 -4.045991,3.36688 -0.553288,0.69724 -0.951719,0.98437 -2.194257,1.58162 -1.810961,0.87065 -3.498751,1.97133 -4.540358,2.96109 -0.966749,0.91862 -1.929604,2.70062 -2.221277,4.1108 -0.198953,0.96188 -0.176785,1.28609 0.179841,2.63034 0.371487,1.40006 0.479454,1.61178 1.244842,2.44074 1.065428,1.15396 2.570973,1.9713 4.189238,2.27442 1.066716,0.19968 1.538104,0.18336 2.945479,-0.10351 1.469672,-0.29868 1.80886,-0.42963 2.760702,-1.06535 0.596877,-0.3987 1.466031,-0.92199 1.931478,-1.16296 0.465447,-0.24096 0.840967,-0.45846 0.834497,-0.48346 -0.005,-0.0254 -0.625647,-0.41954 -1.375884,-0.87682 -1.461881,-0.89088 -2.735282,-2.185 -3.528427,-3.5858 -0.880923,-1.55601 -1.661211,-5.66893 -1.137882,-5.99791 0.147546,-0.0939 0.296412,0.26251 0.597325,1.42564 1.037992,4.01184 3.504097,6.92938 6.585218,7.79053 l 0.88655,0.24787 3.68905,-1.04005 3.68895,-1.04 0.35319,-1.19301 c 0.40353,-1.36326 0.57692,-3.6074 0.38676,-5.00714 -0.0867,-0.63453 -0.052,-0.97495 0.10348,-1.01437 0.57681,-0.14607 1.33874,4.40641 1.05691,6.31495 l -0.0962,0.65592 0.84142,-0.0959 c 0.8895,-0.10189 3.99932,-0.27921 4.65659,-0.26712 0.3403,0.006 0.44287,-0.23813 0.82816,-1.97312 0.69897,-3.14779 2.12416,-6.83889 2.69654,-6.98398 0.34259,-0.086 0.33968,-0.0643 -0.19213,1.5057 -0.75007,2.21413 -1.65815,7.62926 -1.26675,7.55471 0.0695,-0.015 0.54143,-0.0112 1.04809,0.004 1.43076,0.0433 3.45901,-0.61941 4.39238,-1.4361 z"
       id="path379-5-4-2"
       sodipodi:nodetypes="scsccsssssssssscssssccssssscssscsssssssccsscssscsssssscsssssssssssscscssscsssssscssssssssssscccsssscssssccss" />
  </g>
  <g
     inkscape:groupmode="layer"
     id="layer4"
     inkscape:label="Utensils"
     style="display:none">
    <path
       style="display:inline;fill:#000000;stroke-width:0.284003"
       d="m 112.59396,200.37086 c -2.61308,0.41146 -4.89364,-2.12859 -4.33988,-4.83364 0.0991,-0.48401 4.66424,-10.40228 10.14478,-22.04062 19.24363,-40.86518 19.78736,-42.04924 19.42964,-42.31094 -0.18663,-0.13652 -0.97403,-0.99372 -1.74983,-1.90488 -1.23775,-1.45376 -1.46265,-1.88186 -1.83624,-3.49518 -1.1992,-5.17867 2.33477,-12.21097 8.50864,-16.93155 2.49129,-1.90483 4.70495,-2.82537 6.48872,-2.69824 1.76775,0.12598 2.69805,0.73807 3.84445,2.52941 2.73245,4.26971 1.99947,13.87904 -1.48265,19.43691 -0.93213,1.48782 -1.36382,1.92199 -3.07833,3.09606 -2.17261,1.48775 -3.37216,1.84636 -5.42203,1.62093 l -1.2282,-0.13506 -13.57341,33.23907 c -7.46537,18.28147 -13.80234,33.46703 -14.08215,33.74564 -0.27978,0.27863 -1.01038,0.58557 -1.62351,0.68209 z"
       id="path379-06"
       sodipodi:nodetypes="sscssccscssscsss" />
    <path
       d="m 68.172099,104.66997 c -0.0369,-0.0356 -0.0649,-0.0527 -0.0829,-0.0517 -0.31887,0.0255 -0.40762,0.2162 -0.34941,0.75057 0.0429,0.394 2.0047,5.09608 4.35966,10.44908 2.638314,5.99706 4.232964,9.95628 4.154894,10.31528 -0.10006,0.46009 -0.25301,0.57306 -0.72844,0.53774 -0.33115,-0.0246 -0.74937,-0.25269 -0.92893,-0.50701 -0.17955,-0.25427 -2.285244,-5.05063 -4.679544,-10.65831 -2.66522,-6.24222 -4.5205,-10.25469 -4.78464,-10.3479 -0.51797,-0.18272 -0.83819,0.14064 -0.87459,0.88312 -0.0147,0.30057 1.81416,5.05948 4.06439,10.57543 2.40627,5.89844 4.11214,10.46707 4.14159,11.09253 0.0868,1.84431 -1.14657,1.88795 -2.01532,0.0713 -0.55181,-1.15389 -5.64967,-15.00873 -6.73888,-18.31468 -0.82305,-2.49795 -0.97385,-2.7456 -1.70508,-2.79927 -0.59109,-0.0434 -0.61161,-0.0175 -0.65623,0.83315 -0.0253,0.48294 1.46519,5.22255 3.31221,10.53206 1.84699,5.30952 3.48697,10.05869 3.64429,10.55381 0.20541,0.6464 0.1459,1.10114 -0.21099,1.61285 -0.46758,0.67038 -0.53599,0.67957 -1.15311,0.15391 -0.80983,-0.68982 -0.90635,-0.96771 -4.34528,-12.49316 -2.28661,-7.66348 -2.88183,-9.35417 -3.28119,-9.32221 -0.76908,0.0616 -0.81853,0.69893 -0.24945,3.21026 1.09668,4.83954 5.33774,19.22233 6.04178,20.48919 1.56423,2.81475 4.20486,4.86977 6.59392,5.13198 0.63459,0.0696 1.26266,0.22224 1.39604,0.33884 0.13323,0.11677 1.816724,4.38963 3.740854,9.49532 1.92414,5.10566 3.63815,9.39732 3.8084,9.53737 l 4.00745,10.94643 0.26854,0.81995 c 0.81812,2.49603 9.11596,24.09851 9.62629,25.06108 1.37822,2.59952 3.43486,3.38361 4.76855,1.81791 0.64329,-0.75522 0.694227,-1.05359 0.51031,-2.96855 -0.16885,-1.7582 -0.68161,-3.29066 -2.94482,-8.79974 -1.50726,-3.66895 -3.48975,-8.50081 -4.40574,-10.73716 l -1.6657,-4.06585 -4.35804,-10.50527 -4.02278,-9.66707 c -2.21277,-5.31696 -4.25557,-10.29888 -4.53938,-11.071 l -0.516,-1.40394 1.15497,-1.42777 c 1.79834,-2.2231 2.15907,-4.71996 1.18046,-8.16877 -0.68835,-2.42589 -10.395574,-20.79702 -11.538114,-21.8999 z"
       style="display:inline;fill:#000000;stroke-width:0.267161"
       id="path379-9-56-8" />
  </g>
  <g
     inkscape:groupmode="layer"
     id="layer5"
     inkscape:label="ExtraParts"
     style="display:none">
    <path
       sodipodi:nodetypes="sscssccscssscssssscccssssssccsssssssssssssssssscsssssccsscscssscsccsssssssssscssssccssssscssscsssssssccsscssscsssssscsssssssssssscscssscsssssscssssssssssscccsssscssssccss"
       id="path379-5"
       d="m -459.25035,249.21566 c -2.89425,-1.55573 -3.24256,-5.78167 -0.66284,-8.04191 0.46158,-0.40442 12.42799,-6.78779 26.59201,-14.18529 49.73356,-25.9745 51.16088,-26.73751 51.00354,-27.26511 -0.0821,-0.27524 -0.21722,-1.71475 -0.30032,-3.19891 -0.13258,-2.36796 -0.0335,-2.96042 0.8087,-4.83715 2.70348,-6.02416 11.48194,-10.32693 21.13571,-10.3597 3.89549,-0.0132 6.77696,0.73885 8.44622,2.20448 1.65424,1.45245 2.11486,2.75678 1.90349,5.39009 -0.50383,6.27659 -8.44689,15.23279 -16.06656,18.11582 -2.03975,0.77177 -2.79295,0.87705 -5.37105,0.75076 -3.26693,-0.16005 -4.72302,-0.70628 -6.5817,-2.46904 l -1.11364,-1.05616 -38.3956,22.68887 c -21.11758,12.47887 -38.79333,22.74243 -39.27942,22.80791 -0.4861,0.0655 -1.43944,-0.17962 -2.11854,-0.54466 z m 75.14167,-2.50152 c -1.33721,-0.53062 -28.17514,-15.14126 -31.13473,-16.94983 l -0.97223,-0.59412 3.57763,-2.06945 3.57763,-2.06946 5.15571,2.66125 c 2.83564,1.46368 8.96572,4.62284 13.62238,7.02035 6.99218,3.59997 8.81993,4.70131 10.49514,6.3241 1.82456,1.76746 2.02847,2.1114 2.02847,3.42138 0,2.71585 -2.73874,3.68876 -6.35,2.25578 z m -57.50277,-31.44219 c -6.30591,-3.48478 -11.65668,-6.33859 -11.8906,-6.34181 -0.23392,-0.003 -0.996,0.38145 -1.69352,0.85479 -2.62604,1.78208 -7.03992,1.97713 -11.02243,0.48708 -1.79245,-0.67064 -18.37095,-11.49669 -23.61721,-15.42245 -2.72239,-2.03716 -3.21842,-2.72039 -2.49802,-3.4408 0.37407,-0.37407 2.41991,0.81596 11.28029,6.56151 13.32552,8.64101 13.66024,8.83736 15.06495,8.83736 1.07041,0 1.13133,-0.0677 1.02734,-1.14193 -0.0794,-0.81999 -0.40891,-1.32797 -1.16888,-1.80186 -0.58208,-0.36297 -6.29707,-3.7328 -12.69999,-7.48851 -6.40291,-3.75571 -11.95916,-7.24351 -12.34722,-7.75066 -0.68355,-0.89333 -0.68523,-0.93698 -0.0539,-1.3995 0.78099,-0.57217 1.14463,-0.45241 4.11084,1.3539 3.92562,2.39055 20.91348,11.95253 22.45619,12.63995 2.42873,1.08222 3.63084,-0.0175 1.96443,-1.7971 -0.56515,-0.60353 -6.19151,-3.73542 -13.66089,-7.60428 -6.985,-3.61796 -12.89844,-6.83563 -13.14098,-7.15038 -0.59914,-0.77752 -0.55408,-1.37685 0.12305,-1.63669 0.34531,-0.1325 5.64612,2.31239 13.67014,6.30509 7.20837,3.58683 13.43194,6.60486 13.83017,6.70673 0.39823,0.10187 1.01364,-0.0265 1.36758,-0.28534 0.50817,-0.37158 0.56539,-0.61655 0.27202,-1.16471 -0.22891,-0.42772 -5.22218,-3.04212 -13.00924,-6.81143 -6.95076,-3.36451 -12.94907,-6.41124 -13.32958,-6.77053 -0.51609,-0.4873 -0.59012,-0.75495 -0.29143,-1.05365 0.55278,-0.55278 27.61949,10.20666 30.47792,12.11545 3.93678,2.62888 5.71199,5.44775 5.80784,9.22227 l 0.0616,2.42431 1.72075,0.9693 c 0.94642,0.53312 7.26549,3.79206 14.04239,7.2421 l 12.32163,6.27279 -3.3258,1.69275 c -1.82919,0.93102 -3.56392,1.69713 -3.85496,1.70248 -0.29104,0.005 -5.68854,-2.84145 -11.99444,-6.32623 z m -5.02069,-22.59616 c -1.51547,-0.80016 -2.39503,-2.25841 -2.37072,-3.9305 0.009,-0.64022 0.3893,-3.06905 0.84444,-5.39738 0.45514,-2.32833 0.79578,-4.26872 0.75699,-4.31197 -0.0388,-0.0432 -0.6966,0.0981 -1.46181,0.31419 -0.76519,0.21606 -2.50253,0.40133 -3.86072,0.41172 -3.09629,0.0237 -5.30028,-0.89712 -7.76112,-3.24252 -0.97014,-0.92463 -2.37555,-1.98896 -3.12314,-2.36517 -2.37315,-1.19427 -4.70643,-4.09972 -5.5666,-6.93165 -1.38745,-4.56787 -0.32931,-11.39616 2.30023,-14.84373 0.61172,-0.80201 2.26705,-2.39478 3.6785,-3.53948 1.41146,-1.1447 2.99573,-2.65918 3.5206,-3.3655 1.91289,-2.57421 4.88236,-5.19913 7.3043,-6.45678 2.86414,-1.48727 7.39882,-2.97915 10.10746,-3.3253 2.04984,-0.26196 3.43458,-0.83445 4.17435,-1.72582 0.86757,-1.04536 4.70081,-3.05545 7.81886,-4.1001 10.02278,-3.35793 22.87184,-2.62403 31.17548,1.78066 2.03544,1.0797 2.97724,1.35348 5.29167,1.53826 8.28168,0.6612 16.47352,5.33255 19.20809,10.95331 2.1381,4.39474 2.18931,9.27825 0.14236,13.57453 -0.69721,1.46334 -0.96747,2.6139 -1.00823,4.2923 -0.0341,1.40638 -0.2956,2.75107 -0.67614,3.47757 -1.58454,3.02504 -6.14811,6.12059 -9.71121,6.58729 -3.31237,0.43385 -3.55184,0.52726 -3.55184,1.38536 0,0.44596 -0.21772,1.34616 -0.48381,2.00044 -0.2661,0.65429 -0.86141,3.96774 -1.32292,7.36322 -0.93665,6.89131 -0.82342,7.291 -1.29804,-4.5817 l -0.24662,-6.16921 -1.67631,-0.79502 c -2.43913,-1.1568 -8.02786,-2.74811 -12.06652,-3.43577 -10.20617,-1.7378 -23.02906,-1.16049 -34.41134,1.54925 -3.38227,0.80521 -4.58124,1.79864 -4.58436,3.79844 -0.002,1.51095 0.41867,1.67993 2.07729,0.83376 2.16023,-1.10206 7.02983,-2.40299 11.40951,-3.04807 8.77791,-1.29291 24.23794,0.0337 35.63576,3.05785 1.44698,0.38392 1.95465,1.54395 0.52916,1.20916 -2.08177,-0.48892 -9.39324,-1.59912 -13.67014,-2.07573 -10.37712,-1.1564 -18.22259,-1.04937 -24.98721,0.34086 -3.08676,0.63437 -7.47974,2.35631 -8.28389,3.24707 -0.47272,0.52363 -2.5918,10.19928 -2.29476,10.47775 0.0614,0.0576 1.26655,-0.19025 2.67805,-0.55074 6.83234,-1.74499 19.26954,-2.56872 26.7142,-1.76929 7.36521,0.79088 16.56439,3.1823 21.16667,5.50248 0.97014,0.48909 1.44639,0.79101 1.05833,0.67094 -10.64173,-3.29272 -23.41762,-4.6636 -34.21944,-3.6718 -8.02733,0.73705 -15.45243,2.11621 -14.82652,2.75391 0.12987,0.13232 0.95879,0.48566 1.84204,0.7852 l 1.60591,0.54462 -2.43334,0.95469 c -2.8689,1.12557 -3.39964,1.14914 -5.1435,0.2284 z m -3.00502,-16.93115 c 1.30418,-0.36219 1.32293,-0.39248 1.32293,-2.13789 0,-0.97378 0.1656,-2.07992 0.36799,-2.4581 0.29441,-0.5501 0.2415,-0.72878 -0.26458,-0.89356 -5.66699,-1.84518 -10.65568,-7.14004 -10.88791,-11.5561 -0.0421,-0.80115 -0.3316,-2.04685 -0.64327,-2.76822 -0.31169,-0.72137 -0.5667,-2.03106 -0.5667,-2.91042 0,-0.87935 -0.1276,-1.59883 -0.28357,-1.59883 -0.36498,0 -2.20257,1.96579 -3.20253,3.42594 -2.20776,3.22379 -2.91334,9.60835 -1.40597,12.72216 0.78064,1.61259 2.74361,3.29255 4.89207,4.18676 0.67911,0.28265 1.55224,1.01696 1.94029,1.6318 1.50047,2.37736 5.12937,3.35675 8.73125,2.35646 z m 66.08004,-8.1841 c 3.59489,-1.84097 5.36081,-4.91813 3.69009,-6.4301 -0.69212,-0.62637 -0.69069,-0.63878 0.19593,-1.69247 1.89452,-2.2515 2.73367,-4.47622 2.8907,-7.66367 0.12187,-2.47353 0.012,-3.35875 -0.62757,-5.05533 -1.73002,-4.58931 -8.04598,-8.64144 -15.43265,-9.90111 l -1.14723,-0.19564 1.01937,2.01979 c 0.80282,1.59073 2.15703,5.33523 2.15703,5.96438 0,0.0618 -0.19844,0.11177 -0.44098,0.11105 -0.24253,-7.1e-4 -0.97602,-1.03604 -1.62996,-2.30071 -2.37862,-4.60003 -7.93745,-8.44556 -14.50962,-10.03757 -5.65304,-1.36937 -13.47499,-1.29838 -19.2275,0.1745 -2.76521,0.70801 -7.31388,2.89663 -9.49023,4.56628 -1.41606,1.08637 -2.32848,1.44962 -5.02492,2.00047 -3.92999,0.80284 -7.73718,2.11536 -10.24178,3.53084 -2.32461,1.31374 -5.07274,4.3129 -6.33991,6.91901 -0.86435,1.77765 -0.9835,2.42108 -0.96638,5.21858 0.0178,2.91422 0.12049,3.38035 1.18377,5.37527 1.48011,2.77697 3.97772,5.11504 6.94974,6.50582 1.95906,0.91675 2.87707,1.11765 5.73623,1.25533 2.9857,0.14377 3.70572,0.0561 5.86036,-0.71343 1.35105,-0.48254 3.28989,-1.07359 4.30854,-1.31345 1.01864,-0.23987 1.85208,-0.47858 1.85208,-0.53048 0,-0.0519 -0.99798,-1.12733 -2.21772,-2.38983 -2.37662,-2.45993 -4.18812,-5.61311 -5.01941,-8.73699 -0.92329,-3.46964 -0.37543,-11.87646 0.79894,-12.25952 0.33107,-0.10798 0.44097,0.65849 0.44097,3.07544 0,8.3371 3.30279,15.24558 8.81944,18.44772 l 1.5875,0.92146 7.6393,-0.20516 7.6393,-0.20516 1.27737,-2.15203 c 1.45965,-2.45914 2.91478,-6.75005 3.24666,-9.57383 0.15046,-1.28017 0.38775,-1.92681 0.70705,-1.92681 1.18626,0 0.38353,9.25487 -1.11349,12.83773 l -0.51449,1.23136 1.67165,0.22988 c 1.76694,0.24298 7.85819,1.43198 9.12065,1.78033 0.65379,0.1804 0.97382,-0.24552 2.5838,-3.43878 2.92099,-5.79353 7.51477,-12.28774 8.69191,-12.28774 0.70468,0 0.68745,0.0436 -1.12265,2.84172 -2.55338,3.94714 -7.01001,14.05916 -6.21739,14.10718 0.14135,0.009 1.05075,0.24514 2.02089,0.52572 2.73961,0.79234 6.98515,0.50142 9.19461,-0.63005 z"
       style="display:inline;fill:#000000;stroke-width:0.352777" />
    <path
       style="display:inline;fill:#000000;stroke-width:0.352777"
       d="m -448.68121,81.295546 c -1.66658,-0.39924 -2.88037,-1.593738 -3.27159,-3.21961 -0.15009,-0.622433 -0.38415,-3.069689 -0.52078,-5.438149 -0.13663,-2.368461 -0.28796,-4.332704 -0.33626,-4.36498 -0.0483,-0.03223 -0.6505,0.267827 -1.33819,0.666975 -0.68768,0.399114 -2.32477,1.009545 -3.63793,1.356511 -2.99364,0.791 -5.35716,0.445662 -8.32287,-1.21602 -1.16918,-0.655088 -2.79468,-1.337539 -3.61222,-1.516551 -2.59522,-0.568281 -5.57628,-2.804151 -7.11204,-5.334217 -2.47715,-4.08094 -3.14585,-10.958298 -1.45367,-14.950383 0.39366,-0.928683 1.60217,-2.882281 2.68556,-4.341318 1.0834,-1.45904 2.24249,-3.319168 2.57575,-4.133609 1.21457,-2.968253 3.44012,-6.247718 5.4744,-8.066829 2.40571,-2.151243 6.4286,-4.721333 8.96673,-5.728548 1.92079,-0.762239 3.12025,-1.660324 3.61579,-2.707337 0.58115,-1.227892 3.79599,-4.126002 6.55746,-5.911441 8.87659,-5.739152 21.50612,-8.2154208 30.64284,-6.008126 2.23965,0.541061 3.21992,0.57267 5.50786,0.177576 8.18686,-1.4137514 17.28141,1.079603 21.32476,5.84638 3.1614,3.727031 4.42237,8.445213 3.5051,13.11497 -0.31244,1.59055 -0.28885,2.77219 0.088,4.408245 0.31582,1.370875 0.39605,2.738415 0.20761,3.536603 -0.78465,3.323545 -4.43774,7.454351 -7.77371,8.790299 -3.10123,1.24193 -3.31005,1.391822 -3.0972,2.223094 0.11063,0.432032 0.12301,1.358103 0.0275,2.057939 -0.0955,0.699848 0.14971,4.05741 0.54488,7.461248 0.80203,6.908272 1.01086,7.267384 -2.39397,-4.116526 l -1.7692,-5.915237 -1.82112,-0.354361 c -2.64985,-0.515606 -8.45864,-0.670888 -12.54165,-0.335259 -10.31826,0.848161 -22.59719,4.588179 -32.95158,10.036627 -3.07683,1.619023 -3.99191,2.878811 -3.49888,4.816885 0.37286,1.464224 0.8223,1.523575 2.21919,0.292427 1.81935,-1.603466 6.21406,-4.071651 10.29685,-5.782958 8.18286,-3.429889 23.48878,-5.979619 35.28053,-5.877233 1.49699,0.013 2.27654,1.010842 0.81255,1.04011 -2.13798,0.04275 -9.49633,0.780868 -13.75779,1.380047 -10.33965,1.453805 -17.91337,3.503573 -24.12173,6.52833 -2.83293,1.380211 -6.66149,4.138021 -7.21955,5.200423 -0.32805,0.624524 0.0192,10.52342 0.37599,10.719506 0.0738,0.04057 1.17977,-0.498474 2.45774,-1.197833 6.18596,-3.385218 18.03013,-7.268274 25.44041,-8.3405 7.33121,-1.060782 16.83608,-1.025975 21.87005,0.08009 1.06114,0.233159 1.5974,0.407509 1.19168,0.38745 -11.12591,-0.550111 -23.84256,1.290936 -34.06077,4.931151 -7.59362,2.705208 -14.44456,5.883075 -13.68003,6.345587 0.15864,0.09597 1.0493,0.232652 1.97924,0.303738 l 1.69082,0.12925 -2.12049,1.52845 c -2.50003,1.802026 -3.00833,1.95651 -4.92609,1.497116 z m -7.1109,-15.656598 c 1.17358,-0.674375 1.18423,-0.708369 0.75127,-2.399239 -0.24154,-0.943337 -0.3555,-2.055984 -0.25324,-2.472547 0.14875,-0.605937 0.0532,-0.765918 -0.47796,-0.800004 -5.94758,-0.381815 -12.09376,-4.27373 -13.41414,-8.494178 -0.23951,-0.765659 -0.82896,-1.900616 -1.30983,-2.522131 -0.48088,-0.621509 -1.0528,-1.827012 -1.27092,-2.678889 -0.21813,-0.851867 -0.52021,-1.51721 -0.6713,-1.478521 -0.35358,0.09053 -1.64612,2.450704 -2.25263,4.113261 -1.3391,3.670666 -0.43892,10.030708 1.79372,12.673306 1.15625,1.368542 3.47459,2.509089 5.77771,2.842423 0.728,0.105352 1.75599,0.600141 2.28442,1.099508 2.04329,1.930866 5.80171,1.979491 9.0429,0.117011 z m 61.98474,-24.319596 c 3.02589,-2.675153 3.97332,-6.094181 1.97977,-7.144472 -0.82587,-0.435122 -0.82756,-0.447489 -0.23002,-1.688175 1.27682,-2.651082 1.5379,-5.014416 0.89937,-8.1412 -0.4955,-2.426454 -0.82152,-3.256754 -1.86194,-4.741664 -2.81434,-4.016745 -9.93804,-6.375546 -17.40632,-5.763571 l -1.1599,0.09505 1.48852,1.703808 c 1.17232,1.341873 3.41303,4.633431 3.5691,5.242918 0.0153,0.05987 -0.16452,0.157501 -0.39966,0.216966 -0.23513,0.05946 -1.2025,-0.761557 -2.14971,-1.824491 -3.44533,-3.866243 -9.78432,-6.212709 -16.54599,-6.124725 -5.81603,0.07568 -13.37591,2.084695 -18.58329,4.938462 -2.50316,1.371799 -6.36678,4.620323 -8.06095,6.777638 -1.10233,1.403674 -1.89613,1.981899 -4.37166,3.18439 -3.60802,1.75259 -6.97065,3.96847 -9.04586,5.960982 -1.92608,1.849305 -3.84438,5.43641 -4.42549,8.275394 -0.39639,1.936497 -0.35221,2.589373 0.3583,5.295186 0.74012,2.818735 0.95522,3.244825 2.48012,4.913649 2.12268,2.323036 5.1222,3.968497 8.34632,4.578596 2.12523,0.40214 3.06438,0.369057 5.86834,-0.206786 2.92805,-0.601331 3.60382,-0.864863 5.50023,-2.144806 1.18913,-0.802589 2.92077,-1.8561 3.84808,-2.341141 0.92731,-0.485049 1.67549,-0.923035 1.66261,-0.973323 -0.0129,-0.05028 -1.24642,-0.844536 -2.74121,-1.76502 -2.91253,-1.793525 -5.44957,-4.398812 -7.02976,-7.218858 -1.75509,-3.132176 -3.30967,-11.412156 -2.26703,-12.074548 0.29394,-0.186728 0.59053,0.528526 1.19006,2.869939 2.06803,8.076538 6.98126,13.949843 13.11979,15.683481 l 1.76646,0.498889 7.34966,-2.093691 7.34965,-2.09369 0.70364,-2.401636 c 0.80403,-2.744343 1.14932,-7.262106 0.77038,-10.079947 -0.17179,-1.277483 -0.10231,-1.962773 0.20701,-2.041976 1.14918,-0.294254 2.66723,8.87049 2.10573,12.712713 l -0.19297,1.320496 1.67643,-0.191961 c 1.77199,-0.202906 7.9678,-0.562012 9.27721,-0.537705 0.67811,0.01259 0.88249,-0.479404 1.65005,-3.972223 1.39261,-6.33702 4.23192,-13.767761 5.37227,-14.059753 0.68265,-0.174797 0.67678,-0.128285 -0.38267,3.031383 -1.49449,4.45714 -3.30353,15.358612 -2.52377,15.20852 0.13917,-0.02634 1.07872,-0.02316 2.08814,0.008 2.85053,0.08801 6.89122,-1.24693 8.75096,-2.891099 z"
       id="path379-5-4"
       sodipodi:nodetypes="scsccsssssssssscssssccssssscssscsssssssccsscssscsssssscsssssssssssscscssscsssssscssssssssssscccsssscssssccss" />
    <path
       sodipodi:nodetypes="sscssccscssscssssscccssssssccsssssssssssssssssscsssssccsscscss"
       id="path379-0"
       d="m -458.51264,-29.694733 c -2.89425,-1.555721 -3.24256,-5.78167 -0.66284,-8.04191 0.46158,-0.40441 12.42799,-6.78779 26.59201,-14.185292 49.73355,-25.974499 51.16087,-26.737509 51.00354,-27.265109 -0.0821,-0.27524 -0.21723,-1.71475 -0.30033,-3.19891 -0.13258,-2.36796 -0.0335,-2.96042 0.80871,-4.83715 2.70347,-6.02416 11.48193,-10.32693 21.1357,-10.3597 3.8955,-0.0132 6.77696,0.73885 8.44623,2.20448 1.65423,1.45245 2.11486,2.75678 1.90349,5.39009 -0.50383,6.27659 -8.44689,15.23279 -16.06657,18.11582 -2.03975,0.77177 -2.79295,0.877051 -5.37105,0.75076 -3.26692,-0.160049 -4.72301,-0.70628 -6.5817,-2.46904 l -1.11364,-1.05616 -38.3956,22.68887 c -21.11757,12.47888 -38.79332,22.74244 -39.27941,22.807919 -0.4861,0.0655 -1.43944,-0.179628 -2.11854,-0.544668 z m 75.14166,-2.501511 c -1.33721,-0.530619 -28.17514,-15.14126 -31.13473,-16.94983 l -0.97223,-0.59412 3.57763,-2.069459 3.57763,-2.069463 5.15571,2.661251 c 2.83564,1.463691 8.96572,4.62285 13.62238,7.020362 6.99218,3.59996 8.81993,4.701309 10.49515,6.324099 1.82455,1.767459 2.02846,2.111389 2.02846,3.42138 0,2.71585 -2.73874,3.68876 -6.35,2.25578 z m -57.50276,-31.4422 c -6.30591,-3.484779 -11.65668,-6.338591 -11.8906,-6.341811 -0.23392,-0.003 -0.996,0.38145 -1.69352,0.854789 -2.62604,1.78208 -7.03992,1.977131 -11.02243,0.487082 -1.79245,-0.670642 -18.37095,-11.49669 -23.61721,-15.42245 -2.72239,-2.03716 -3.21842,-2.72039 -2.49802,-3.4408 0.37407,-0.37407 2.41991,0.81596 11.28029,6.56151 13.32552,8.64101 13.66024,8.83736 15.06495,8.83736 1.07041,0 1.13133,-0.0677 1.02734,-1.14193 -0.0794,-0.81999 -0.40891,-1.32797 -1.16888,-1.80186 -0.58208,-0.36297 -6.29707,-3.7328 -12.69999,-7.48851 -6.40291,-3.75571 -11.95916,-7.24351 -12.34722,-7.75066 -0.68355,-0.89333 -0.68523,-0.93698 -0.0539,-1.3995 0.78099,-0.57217 1.14463,-0.45241 4.11084,1.3539 3.92562,2.39055 20.91348,11.95253 22.45619,12.63995 2.42873,1.08222 3.63084,-0.0175 1.96443,-1.7971 -0.56515,-0.60353 -6.19151,-3.73542 -13.66089,-7.60428 -6.985,-3.61796 -12.89844,-6.83563 -13.14098,-7.15038 -0.59914,-0.77752 -0.55408,-1.37685 0.12305,-1.63669 0.34531,-0.1325 5.64612,2.31239 13.67014,6.30509 7.20837,3.58683 13.43194,6.60486 13.83017,6.70673 0.39823,0.10187 1.01364,-0.0265 1.36758,-0.28534 0.50817,-0.37158 0.56539,-0.61655 0.27202,-1.16471 -0.22891,-0.42772 -5.22218,-3.04212 -13.00924,-6.81143 -6.95076,-3.36451 -12.94907,-6.41124 -13.32958,-6.77053 -0.51609,-0.4873 -0.59012,-0.75495 -0.29143,-1.05365 0.55278,-0.55278 27.61949,10.20666 30.47792,12.11545 3.93678,2.62888 5.712,5.44775 5.80785,9.22227 l 0.0616,2.42431 1.72075,0.9693 c 0.94641,0.53312 7.26548,3.79206 14.04238,7.242099 l 12.32162,6.27279 -3.32579,1.692751 c -1.82919,0.931018 -3.56392,1.69713 -3.85496,1.70248 -0.29104,0.005 -5.68854,-2.84145 -11.99444,-6.32623 z"
       style="display:inline;fill:#000000;stroke-width:0.352777" />
    <path
       id="path379-9-56"
       style="display:inline;fill:#000000;stroke-width:0.533858"
       d="m -279.38729,89.942578 c -0.0736,-0.0711 -0.12966,-0.10533 -0.16574,-0.10331 -0.63719,0.051 -0.81455,0.43203 -0.69822,1.49984 0.0858,0.7873 4.00592,10.183272 8.71174,20.879952 5.27204,11.9837 8.45856,19.89525 8.30255,20.61263 -0.19994,0.91938 -0.50557,1.14512 -1.45561,1.07455 -0.66173,-0.0492 -1.49743,-0.50494 -1.85625,-1.01313 -0.35878,-0.50811 -4.56651,-10.0925 -9.35094,-21.2981 -5.3258,-12.473574 -9.03313,-20.491532 -9.56096,-20.677792 -1.03504,-0.36511 -1.67491,0.28105 -1.74766,1.76472 -0.0295,0.6006 3.62516,10.110142 8.12171,21.132442 4.80837,11.78662 8.21714,20.91594 8.27598,22.16578 0.17342,3.68539 -2.29114,3.7726 -4.02712,0.14254 -1.10266,-2.30576 -11.28952,-29.99135 -13.46605,-36.597507 -1.64466,-4.991555 -1.946,-5.486435 -3.40721,-5.593665 -1.18115,-0.0867 -1.22215,-0.035 -1.31131,1.66483 -0.0506,0.96505 2.92784,10.436022 6.61866,21.045812 3.69079,10.60981 6.96787,20.09989 7.28224,21.08926 0.41047,1.29168 0.29155,2.20038 -0.42161,3.22292 -0.93434,1.33958 -1.07105,1.35794 -2.30421,0.30753 -1.61824,-1.37842 -1.81113,-1.93373 -8.68301,-24.96458 -4.56924,-15.31364 -5.75866,-18.692085 -6.55667,-18.628225 -1.53682,0.12302 -1.63564,1.396661 -0.49847,6.414945 2.19146,9.67067 10.66621,38.41124 12.07305,40.94275 3.12576,5.6246 8.40242,9.73107 13.1764,10.25502 1.26804,0.13917 2.5231,0.44409 2.78963,0.67709 0.26623,0.23334 3.6303,8.77161 7.47521,18.97412 3.84492,10.20245 7.26995,18.7783 7.61016,19.05815 l 8.00794,21.87383 0.53662,1.63847 c 1.6348,4.98774 18.21606,48.1551 19.23583,50.07858 2.75404,5.19451 6.86376,6.76133 9.5288,3.63264 1.28548,-1.50912 1.38727,-2.10533 1.01974,-5.93192 -0.33742,-3.51335 -1.36203,-6.5756 -5.88451,-17.58417 -3.0119,-7.33155 -6.97344,-16.98684 -8.80382,-21.45565 l -3.3285,-8.12463 -8.7085,-20.99228 -8.03858,-19.31734 c -4.42162,-10.62464 -8.50367,-20.57982 -9.07081,-22.1227 l -1.03109,-2.80545 2.30793,-2.85305 c 3.59355,-4.44232 4.31437,-9.43171 2.35887,-16.32333 -1.3755,-4.84756 -20.77306,-41.557842 -23.05616,-43.761692 z" />
    <path
       sodipodi:nodetypes="sscssccscssscsss"
       id="path379-06-5"
       d="m -220.96465,20.515839 c -4.85641,0.58613 -8.90152,-4.25994 -7.69779,-9.22195 0.21537,-0.88784 9.31313,-18.9124 20.2172,-40.05457 38.28708,-74.235639 39.37083,-76.387519 38.72723,-76.894999 -0.33578,-0.26472 -1.73377,-1.90133 -3.10667,-3.63689 -2.19043,-2.76907 -2.57749,-3.57519 -3.16033,-6.58152 -1.8708,-9.65013 5.12887,-22.41017 16.85295,-30.7221 4.73091,-3.354 8.88312,-4.90752 12.17107,-4.55365 3.25839,0.35068 4.93676,1.54384 6.93585,4.93065 4.76488,8.07261 2.7696,25.78175 -4.03595,35.82051 -1.82181,2.68733 -2.64851,3.46089 -5.89522,5.51625 -4.11417,2.60448 -6.35483,3.18722 -10.12797,2.63394 l -2.2607,-0.3315 -27.30001,60.520679 c -15.01499,33.28635 -27.73827,60.92668 -28.27392,61.4229 -0.53564,0.49625 -1.90624,1.01475 -3.04574,1.15225 z"
       style="display:inline;fill:#000000;stroke-width:0.525177" />
    <path
       inkscape:export-ydpi="96"
       inkscape:export-xdpi="96"
       id="path10225"
       d="m -348.75547,236.21924 c 0.12393,0.20231 0.22703,0.36521 0.2496,0.21033 0.009,-0.0591 0.0122,-0.11856 0.0191,-0.17777 -0.0837,-0.018 -0.17264,-0.0297 -0.26872,-0.0326 z"
       style="fill:#ff0000;fill-opacity:1;fill-rule:nonzero;stroke:none;stroke-width:1" />
    <path
       id="path1465"
       d="m -508.02237,-310.89987 c -0.7795,-0.20794 -1.69253,-0.62512 -2.35846,-1.07763 -1.04709,-0.71152 -2.96908,-2.64725 -4.14601,-4.17566 -0.32193,-0.41808 -0.66244,-0.84629 -0.75668,-0.95158 -0.1745,-0.19493 -2.05731,-2.99444 -4.86252,-7.22994 -0.8574,-1.29458 -1.64642,-2.38161 -1.75336,-2.41564 -0.22511,-0.0716 -0.46346,1.26871 -0.74844,4.20902 -0.14079,1.45249 -0.14192,2.34026 -0.004,3.36305 0.36809,2.7351 0.28672,3.02509 -0.84872,3.02509 -1.05325,0 -2.00119,-0.85232 -2.56134,-2.30298 -0.42822,-1.10896 -0.68173,-4.10658 -0.56266,-6.65329 l 0.10676,-2.28391 -1.02298,-0.19441 c -1.58034,-0.30033 -2.80714,-1.42056 -2.98181,-2.72275 -0.0698,-0.52032 -0.006,-0.70605 0.37239,-1.08445 0.63296,-0.63298 2.09067,-1.14353 3.26491,-1.14353 h 0.97235 l 0.19625,-0.97129 c 0.10794,-0.53422 0.3176,-1.65543 0.4659,-2.49159 0.28842,-1.62627 0.6762,-3.60295 0.93662,-4.77443 0.0881,-0.39619 0.16012,-0.8595 0.16012,-1.02958 0,-0.56638 0.59934,-0.91662 1.56851,-0.91662 1.21855,0 2.22648,0.58622 2.75507,1.60239 0.39314,0.75576 0.43344,0.45252 -1.00547,7.56759 -0.44532,2.20205 -0.51632,2.79858 -0.33816,2.84142 0.22738,0.0547 2.51286,-1.38761 3.60797,-2.27686 1.18724,-0.96407 2.92945,-2.70066 3.69336,-3.6814 1.97361,-2.53388 2.67442,-4.20317 2.84012,-6.76502 0.12203,-1.88679 0.24664,-2.0972 1.24726,-2.10614 0.69922,-0.007 1.26163,0.43913 1.6113,1.27601 0.55576,1.33011 0.3111,3.99697 -0.5165,5.63016 -0.32294,0.6373 -0.3818,0.88533 -0.22298,0.93959 0.50817,0.17362 5.51286,0.59491 7.06724,0.59491 h 1.69628 l 0.22921,-0.54899 c 0.23393,-0.56033 1.00903,-3.31858 1.31657,-4.68509 0.24562,-1.09145 0.57631,-1.52276 1.16752,-1.52276 1.15441,0 2.17107,1.08036 2.16477,2.30037 -0.002,0.36067 -0.19037,1.37789 -0.41891,2.2605 -0.22854,0.88261 -0.41706,1.74712 -0.41892,1.92114 -0.003,0.30545 0.18234,0.31179 5.35984,0.18331 2.94979,-0.0732 5.6673,-0.13957 6.03892,-0.14747 l 0.67569,-0.0144 0.25431,-1.2669 c 0.13986,-0.6968 0.31539,-1.36192 0.39004,-1.47805 0.3724,-0.57934 2.8741,0.0507 3.31412,0.83467 0.23056,0.41077 0.21127,0.60245 -0.22916,2.27738 -2.42315,9.21534 -2.96917,11.99241 -2.96917,15.10139 0,1.16695 0.0525,1.50806 0.23227,1.50806 0.12774,0 0.28036,-0.24047 0.33915,-0.53438 0.30993,-1.54972 2.6135,-7.33194 3.27789,-8.22791 0.40484,-0.54596 0.45731,-0.56551 1.2621,-0.47019 0.91884,0.10882 2.05114,0.59428 2.61807,1.12246 0.52089,0.48528 0.70129,1.30874 0.52188,2.38221 -0.084,0.50246 -0.22634,1.44567 -0.31636,2.09601 -0.09,0.65035 -0.23533,1.60053 -0.32292,2.11151 -0.86581,5.05125 -0.87934,5.17312 -0.82531,7.42995 l 0.0545,2.27786 -0.4223,0.20055 c -0.50925,0.24187 -1.6444,0.068 -2.28161,-0.34957 -1.26406,-0.82825 -1.40472,-2.41486 -0.58532,-6.60267 0.0909,-0.46453 0.27647,-1.41471 0.4124,-2.11151 0.13592,-0.6968 0.43973,-2.19325 0.67516,-3.32544 0.53254,-2.56131 0.54878,-3.40698 0.0751,-3.91537 -0.47404,-0.50881 -0.68844,-0.39597 -0.94112,0.49533 -0.11676,0.41184 -0.51958,1.77498 -0.89516,3.02922 -0.88339,2.95009 -1.52711,5.50826 -1.52711,6.06873 0,1.02368 -0.74666,1.43314 -2.139,1.17303 -1.40541,-0.26257 -2.1127,-1.45665 -2.39051,-4.03586 l -0.13608,-1.26331 -0.32771,0.57098 c -1.85987,3.24054 -3.32412,4.55544 -5.24449,4.70959 -0.8691,0.0697 -1.15271,0.023 -1.62292,-0.26761 -0.84449,-0.52192 -1.41785,-1.23969 -1.94077,-2.42958 -0.44345,-1.00902 -0.46692,-1.19196 -0.46169,-3.5969 0.006,-2.4537 0.0228,-2.57732 0.55184,-3.90958 0.85551,-2.15442 2.15607,-3.97686 3.23694,-4.5358 0.59396,-0.30715 1.89081,-0.48002 2.53674,-0.33815 0.44752,0.0983 0.61156,0.27578 0.96157,1.04028 0.52965,1.1569 0.73489,2.929 0.33922,2.929 -0.3084,0 -0.79567,-0.44357 -0.79567,-0.72433 0,-0.43831 -0.56887,-1.64056 -0.77626,-1.64056 -0.42492,0 -1.07557,0.92152 -1.48666,2.10558 -0.78539,2.26222 -1.01698,3.6004 -1.02419,5.91817 -0.006,1.91606 0.0373,2.27132 0.33925,2.78718 0.64098,1.09491 2.19978,0.77828 3.54735,-0.72055 1.14947,-1.27849 2.38383,-3.94521 2.52038,-5.44506 0.18504,-2.03262 0.40627,-3.24186 1.36848,-7.48033 0.34342,-1.5128 0.5874,-2.78756 0.54217,-2.83279 -0.0452,-0.0452 -0.7205,0.072 -1.50063,0.2604 -1.71351,0.41392 -5.85792,1.0974 -8.17521,1.34823 -3.13035,0.33882 -2.90578,0.25135 -3.19187,1.24324 -2.11352,7.32759 -2.87343,12.09638 -2.48196,15.5753 0.11094,0.98594 0.27372,1.98203 0.36173,2.21352 0.31466,0.8276 0.21453,1.07459 -0.43564,1.07459 -1.30722,0 -2.68934,-2.17466 -3.10892,-4.89162 -0.10701,-0.69289 -0.22277,-1.28802 -0.25724,-1.32249 -0.0344,-0.0344 -0.48575,0.57044 -1.00282,1.34427 -1.10445,1.65289 -1.86987,2.24927 -2.83731,2.21069 -1.99324,-0.0795 -3.16759,-2.21183 -3.17496,-5.76496 -0.003,-1.61823 0.5635,-5.79876 0.9478,-6.98991 0.25117,-0.77853 0.27873,-0.80238 0.9277,-0.80238 0.81195,0 1.90202,0.52775 2.27925,1.10346 0.29459,0.4496 0.27831,0.85092 -0.11967,2.95063 -0.289,1.52473 -0.29635,6.15493 -0.011,6.96799 0.12224,0.3484 0.32123,0.63345 0.4422,0.63345 0.28177,0 1.21321,-1.15073 1.98258,-2.44935 0.52774,-0.89079 0.62486,-1.23817 0.80202,-2.86863 0.1879,-1.72937 0.67987,-4.26276 1.27188,-6.54946 0.62583,-2.41735 0.73306,-2.91261 0.65719,-3.03538 -0.0446,-0.0721 -0.76307,-0.13112 -1.59666,-0.13112 -1.28858,0 -1.53223,0.0443 -1.62654,0.29561 -0.34673,0.92404 -1.69286,0.97061 -3.39805,0.11753 -1.38265,-0.6917 -1.88589,-1.23625 -1.88589,-2.04067 0,-0.72359 -0.18394,-0.71765 -0.74978,0.0242 -1.17043,1.53451 -5.03634,4.98173 -5.5868,4.98173 -0.0771,0 -0.26028,0.10806 -0.40695,0.24011 -0.14668,0.13207 -1.12333,0.67178 -2.17034,1.19936 l -1.90368,0.95924 0.68414,0.78546 c 0.76226,0.87517 3.76501,4.58812 4.33313,5.35802 0.64556,0.87483 1.52194,2.03085 1.79337,2.36563 3.81647,4.70713 5.40967,5.9868 7.44879,5.98294 0.38317,-4.8e-4 1.26679,-0.13627 1.96359,-0.3012 1.4914,-0.35303 1.85836,-0.31585 1.85749,0.18822 -8.3e-4,0.85829 -1.50205,2.5204 -2.87102,3.18005 -0.82407,0.39709 -2.14895,0.54473 -2.95611,0.32942 z m -18.32054,-18.30242 c 0.003,-0.11614 0.0689,-0.52883 0.14405,-0.91711 0.0752,-0.38827 0.0797,-0.79821 0.01,-0.91098 -0.21103,-0.34145 -1.5582,-0.45689 -2.41532,-0.20697 -1.6424,0.47891 -1.36124,1.72746 0.48026,2.13267 0.75585,0.16633 1.77377,0.11053 1.78102,-0.0976 z m 74.14885,11.93943 c -2.54668,-1.11781 -2.81318,-3.98838 -1.017,-10.95464 0.28063,-1.08841 0.50688,-2.06881 0.50278,-2.17866 -0.011,-0.29197 -0.5331,0.74779 -1.34189,2.67193 -3.71029,8.82696 -4.26197,9.93833 -4.97471,10.02174 -1.34954,0.15792 -2.28223,-0.75322 -2.70519,-2.64271 -0.4315,-1.92771 -0.40002,-1.88533 -0.90134,-1.21343 -2.00225,2.68355 -4.26841,3.66699 -6.62365,2.87444 -1.68739,-0.56782 -2.59612,-1.34408 -3.38208,-2.88904 -1.07893,-2.12085 -0.72429,-4.92494 1.04323,-8.24878 1.52598,-2.86965 2.8332,-3.87536 5.05861,-3.89189 2.40932,-0.0179 3.38469,1.10601 3.12865,3.60508 -0.16932,1.65259 -0.56811,2.6103 -1.45717,3.49935 -0.91276,0.91276 -1.59169,1.10074 -3.31075,0.91665 l -1.08049,-0.11572 v 1.27402 c 0,1.46591 0.40453,2.74831 1.14778,3.63861 0.41435,0.49633 0.60046,0.58129 1.42257,0.64946 0.76015,0.0631 1.1019,4.8e-4 1.74072,-0.31854 0.81949,-0.40927 2.36961,-1.95377 2.61886,-2.60937 0.0776,-0.20405 0.18399,-1.49708 0.23645,-2.87339 0.0525,-1.37631 0.1592,-2.56618 0.23718,-2.64416 0.25084,-0.25083 2.27566,-0.18898 2.93683,0.0897 0.83995,0.35405 0.91858,0.76831 0.58017,3.05663 -0.39833,2.69347 -0.5248,4.32478 -0.33531,4.32478 0.16218,0 0.24699,-0.17199 1.29117,-2.61827 0.90746,-2.12601 2.78029,-5.77886 3.60344,-7.02831 0.87279,-1.32483 1.83919,-2.3181 2.39149,-2.45804 0.98497,-0.24954 2.95967,0.49723 3.14019,1.18751 0.0996,0.38094 -0.10948,1.28966 -0.99615,4.3292 -1.37648,4.71866 -1.6674,6.4048 -1.57383,9.12172 l 0.0553,1.60476 -0.4223,0.0393 c -0.23226,0.0217 -0.68836,-0.0774 -1.01353,-0.22006 z m -13.98439,-9.90018 c 1.16221,-1.35304 1.33004,-4.1958 0.24753,-4.19237 -0.3972,8.3e-4 -1.29782,0.67899 -1.77178,1.33329 -0.56681,0.78244 -1.4604,3.12057 -1.32625,3.47015 0.12684,0.33056 1.08572,0.40573 1.80094,0.1412 0.32517,-0.12026 0.79748,-0.45879 1.04956,-0.75227 z m -72.84089,-20.11481 c -4.21133,-0.54213 -6.60441,-4.07336 -6.81826,-10.06102 -0.04,-1.11997 0.28314,-4.9615 0.495,-5.88465 0.55761,-2.42966 2.17981,-5.96672 3.705,-8.07842 1.71055,-2.36834 4.76226,-5.17214 6.88553,-6.32618 2.59786,-1.41199 5.76542,-1.93938 7.27091,-1.21059 0.61265,0.29657 0.8247,0.52406 1.11281,1.19377 0.42762,0.99406 0.44424,1.65769 0.0818,3.26521 -0.71702,3.18003 -3.91172,7.92483 -5.04341,7.49057 -0.46806,-0.17961 -0.25494,-1.12286 0.99795,-4.41665 0.96632,-2.5404 1.48685,-4.57744 1.3476,-5.27366 -0.27177,-1.35885 -2.59634,-0.60253 -4.72787,1.53825 -3.23667,3.25074 -5.5753,8.51073 -6.24209,14.03958 -0.64175,5.32131 0.0154,9.86098 1.68744,11.65644 0.96556,1.03684 1.39673,1.02228 2.26529,-0.0765 0.89577,-1.13322 2.45402,-4.22314 3.23121,-6.40725 0.70238,-1.9739 0.88146,-2.13097 1.85535,-1.62736 1.20346,0.62234 1.48052,2.00014 0.77769,3.86737 -1.82883,4.85876 -4.64113,6.85706 -8.88193,6.31114 z m 21.96461,-0.5699 c -1.13162,-0.47581 -1.83689,-1.92503 -2.29048,-4.70656 -0.0605,-0.37092 -0.14886,-0.73732 -0.1964,-0.81421 -0.0476,-0.0769 -0.4777,0.51274 -0.95595,1.31032 -1.03883,1.73247 -1.70602,2.48769 -2.55263,2.88943 -0.54022,0.25636 -0.76929,0.27263 -1.61748,0.11489 -0.54348,-0.10107 -1.22816,-0.3602 -1.5215,-0.57584 -2.2518,-1.65532 -1.84908,-6.9615 0.87201,-11.48896 0.9339,-1.55387 1.90347,-2.57685 3.10545,-3.2765 0.82472,-0.48007 0.90098,-0.49164 3.23934,-0.49164 2.17069,0 2.43935,0.0333 2.87165,0.3555 0.71534,0.53323 1.0376,1.21189 1.16475,2.45294 0.10347,1.00997 0.0787,1.15486 -0.25492,1.48845 -0.57711,0.5771 -0.76156,0.36023 -0.86441,-1.01631 -0.14326,-1.91746 -0.54043,-2.3732 -1.77189,-2.03317 -1.21146,0.33449 -2.55529,1.63312 -3.75315,3.6269 -1.51963,2.52934 -2.62524,6.84653 -2.32061,9.06151 0.15207,1.10557 0.58985,1.39972 1.21598,0.817 0.84273,-0.78432 2.77391,-5.2395 3.2765,-7.55882 0.19362,-0.89353 0.32364,-1.13906 0.74278,-1.40276 0.71428,-0.44937 2.34004,-0.35445 3.09131,0.1805 0.65176,0.46409 0.65957,0.58737 0.27167,4.28866 -0.14858,1.41767 -0.22298,2.98466 -0.16536,3.48218 0.10635,0.91821 0.34085,1.54475 0.57814,1.54475 0.15191,0 1.44256,-2.14804 2.19674,-3.6561 0.46592,-0.9316 0.53714,-1.28602 0.69602,-3.46287 0.26065,-3.57152 0.85283,-6.63755 1.55546,-8.05349 0.38623,-0.77832 0.40433,-0.79015 1.17023,-0.7653 1.07239,0.0349 1.81129,0.4552 2.12662,1.20988 0.24682,0.59074 0.23344,0.71755 -0.27068,2.56483 -0.51891,1.90136 -0.86556,4.1415 -0.84969,5.49069 0.007,0.66052 0.0175,0.64915 0.43541,-0.50677 0.43161,-1.19387 0.50945,-1.37752 1.68245,-3.96963 0.89899,-1.98662 2.16598,-4.11417 2.86825,-4.81646 0.48756,-0.48756 0.71171,-0.58869 1.3013,-0.58716 1.24269,0.003 1.96386,0.19787 2.42162,0.65352 0.42892,0.42695 0.4413,0.49344 0.34969,1.87844 -0.14279,2.15884 -0.75985,3.70951 -1.74467,4.38432 -0.47515,0.32557 -0.70217,0.37296 -1.35688,0.28322 -0.43244,-0.0593 -1.02091,-0.24573 -1.30769,-0.41436 -0.61377,-0.36089 -0.6569,-0.86691 -0.20847,-2.44553 0.15304,-0.53874 0.27826,-1.02313 0.27826,-1.07643 0,-0.21512 -0.5014,0.33712 -0.60637,0.66785 -0.062,0.19527 -0.40698,0.83587 -0.76668,1.42355 -0.3597,0.58768 -0.654,1.10533 -0.654,1.15032 0,0.0451 -0.36919,0.86079 -0.82043,1.81292 -1.74652,3.68524 -2.22543,5.93121 -1.71679,8.05144 0.26381,1.09969 0.0821,1.36557 -0.93338,1.36557 -0.53808,0 -0.86344,-0.11522 -1.25453,-0.4443 -0.64759,-0.54491 -1.30974,-1.81282 -1.45885,-2.79346 -0.17164,-1.12879 -0.29138,-1.22311 -0.65778,-0.51808 -0.60873,1.17135 -1.85387,2.99092 -2.46574,3.6033 -0.81842,0.81907 -1.4468,1.02769 -2.17422,0.72183 z m 72.78232,-0.2874 c -0.66168,-0.29693 -0.99589,-0.62523 -0.99589,-0.97825 0,-0.20893 0.12029,-0.31716 0.35247,-0.31716 1.0829,0 6.35279,-4.80561 5.96248,-5.43716 -0.0466,-0.0755 -0.7169,-0.13723 -1.48944,-0.13723 -1.55041,0 -2.54563,-0.27382 -3.4205,-0.9411 -0.89521,-0.68283 -1.11921,-1.28395 -1.02959,-2.76313 0.0652,-1.07512 0.19138,-1.50839 0.79219,-2.71882 0.86377,-1.74016 2.17382,-3.40017 3.28501,-4.16256 0.78492,-0.53853 0.88915,-0.56317 2.38355,-0.56317 2.13572,0 3.00773,0.14308 3.56104,0.58427 0.64049,0.51071 0.64109,1.51255 0.002,2.8149 -0.67144,1.36757 -3.00915,3.76535 -3.34428,3.43022 -0.0889,-0.0889 0.18749,-1.4801 0.55457,-2.79146 0.29642,-1.05889 0.16069,-1.37633 -0.49129,-1.14905 -1.63941,0.5715 -3.8629,4.37963 -3.23846,5.54642 0.15986,0.29868 0.34895,0.34888 1.32083,0.3506 1.79207,0.003 3.70588,0.6309 4.08538,1.34 0.34128,0.63769 0.19715,1.737 -0.35368,2.69761 -0.68274,1.19064 -2.78235,3.27597 -4.32574,4.29631 -1.68763,1.11571 -2.61337,1.34617 -3.61033,0.89876 z m -11.34389,-0.86117 c -1.95015,-0.69589 -2.71528,-2.29867 -2.45232,-5.13708 0.19996,-2.15833 0.92136,-5.66832 1.75881,-8.55745 0.086,-0.29687 0.0691,-0.30711 -0.14038,-0.0845 -0.25492,0.27106 -0.82495,1.54727 -3.01794,6.75684 -0.76264,1.81167 -1.65312,3.82605 -1.97885,4.4764 -0.32573,0.65035 -0.67649,1.35563 -0.77949,1.56731 -0.24397,0.50135 -0.81644,0.63692 -1.64334,0.38918 -1.10656,-0.33154 -1.86742,-1.67032 -2.26394,-3.98354 l -0.11582,-0.67569 -0.44698,0.59122 c -1.7831,2.35849 -3.44695,3.42099 -5.34009,3.41007 -2.80391,-0.0162 -5.05083,-1.81588 -5.76952,-4.62117 -0.62693,-2.4472 0.68285,-6.70353 2.9283,-9.51595 1.00586,-1.25983 1.9368,-1.75278 3.56843,-1.88958 2.49033,-0.20878 3.55356,0.54244 3.70189,2.61553 0.24963,3.48876 -1.70247,6.17413 -4.27469,5.88043 -0.46944,-0.0536 -1.09656,-0.14607 -1.39361,-0.20548 l -0.54007,-0.10801 0.004,1.16132 c 0.006,1.60595 0.24896,2.52981 0.94296,3.58139 1.02825,1.55802 2.26781,1.72228 4.0879,0.5417 0.84499,-0.54811 1.85512,-1.57261 2.28644,-2.31899 0.17977,-0.3111 0.49379,-4.90672 0.36951,-5.40802 -0.14436,-0.58229 0.4264,-0.78551 1.89432,-0.67449 1.26476,0.0956 1.99522,0.40226 2.19429,0.92107 0.0582,0.15173 -0.0212,1.15449 -0.17656,2.22836 -0.39406,2.72437 -0.54632,5.039 -0.31734,4.82414 0.099,-0.0929 0.56968,-1.0811 1.04594,-2.19598 1.84893,-4.32826 3.92874,-8.09194 5.36656,-9.71151 0.52598,-0.59246 0.75868,-0.72386 1.4121,-0.79741 0.85762,-0.0965 1.83306,0.15633 2.55385,0.66201 0.61157,0.42905 0.60498,0.97324 -0.0399,3.29841 -0.27743,1.0003 -0.811,2.9196 -1.18573,4.26513 -0.87215,3.13176 -1.21621,6.68637 -0.77928,8.0511 0.0752,0.23496 0.0207,0.45759 -0.15518,0.63346 -0.32325,0.32324 -0.47238,0.32665 -1.30442,0.0297 z m -15.86857,-9.62438 c 1.40526,-0.73116 2.44886,-3.32127 1.90381,-4.72505 -0.17192,-0.44276 -0.24329,-0.47713 -0.80232,-0.38642 -1.09921,0.17838 -2.0987,1.47623 -2.8595,3.71309 -0.38593,1.13467 -0.39376,1.22553 -0.1225,1.42386 0.38502,0.28154 1.31465,0.26894 1.88051,-0.0255 z m -26.31565,9.04384 c -0.8902,-0.93579 -1.10217,-1.84391 -1.08957,-4.66795 0.0188,-4.20303 0.20747,-7.06145 0.47614,-7.2118 0.46761,-0.26168 2.20421,0.0523 2.90188,0.52472 0.81501,0.55184 0.88268,0.95951 0.50176,3.02278 -0.66234,3.58763 -0.81458,4.7623 -0.61717,4.7623 0.0837,0 0.20245,-0.26833 0.26397,-0.59628 0.1985,-1.05805 1.93627,-6.12343 2.62717,-7.65781 0.97896,-2.17414 1.50957,-3.06015 2.31522,-3.86599 0.5915,-0.59163 0.82997,-0.71779 1.35565,-0.71727 2.59477,0.002 3.20162,3.34547 1.80389,9.93697 -0.4686,2.20983 -0.45622,2.10685 -0.23689,1.97129 0.0929,-0.0574 0.6904,-1.15422 1.32773,-2.43733 1.31253,-2.64238 2.2512,-4.13727 2.84025,-4.52324 0.49458,-0.32405 2.04616,-0.18972 2.77389,0.24016 0.82242,0.48582 0.92845,1.03617 0.52361,2.71789 -0.62183,2.58307 -0.73333,3.57473 -0.68999,6.13613 0.0233,1.37881 -0.008,2.55761 -0.0702,2.61956 -0.0619,0.0619 -0.32274,0.10653 -0.57954,0.0991 -1.90363,-0.0553 -2.9149,-2.07654 -2.96287,-5.92184 -0.0129,-1.03618 -0.0788,-1.82753 -0.14639,-1.75855 -0.0676,0.069 -0.54355,1.0376 -1.05771,2.15247 -1.15752,2.50991 -2.08175,4.20856 -2.58579,4.75243 -0.32738,0.35325 -0.47962,0.39807 -1.01915,0.30003 -1.01344,-0.18413 -1.77443,-0.61571 -2.20714,-1.25174 -0.36349,-0.53424 -0.392,-0.7078 -0.29584,-1.80091 0.10779,-1.22563 0.15933,-1.49707 1.08511,-5.71606 0.83764,-3.81741 1.06388,-5.68679 0.71437,-5.90282 -0.4891,-0.30227 -1.18376,0.65248 -1.95963,2.69332 -0.24724,0.65035 -0.55116,1.4485 -0.6754,1.77367 -0.12423,0.32517 -0.53743,1.65542 -0.91821,2.95612 -1.24068,4.23788 -1.54175,5.22303 -1.87599,6.1384 -0.18112,0.49603 -0.32931,1.12314 -0.32931,1.3936 0,0.4726 -0.0306,0.49174 -0.78631,0.49174 -0.69306,0 -0.85995,-0.0774 -1.40753,-0.65307 z m 49.32274,-18.59567 c 0,-0.27418 0.11681,-0.93931 0.25962,-1.47806 0.14279,-0.53875 0.30654,-1.89171 0.36389,-3.00658 l 0.10427,-2.02706 0.62976,-0.63345 c 0.52593,-0.52902 0.74529,-0.63345 1.3306,-0.63345 0.46045,0 0.73352,0.0851 0.79605,0.24804 0.16375,0.42671 -0.29726,4.51578 -0.63119,5.59865 -0.38054,1.23403 -0.85548,1.88266 -1.60904,2.19752 -0.9143,0.38201 -1.24396,0.31162 -1.24396,-0.26561 z"
       style="display:inline;fill:#000000;stroke-width:0.168921"
       sodipodi:nodetypes="csssssscssscsssscsssssssssssssssscssscscsscsssssssssssssscssssssssssscsssssssssssssscssssssssssssssssssssssssssssssssscssccscsccsscsssssssssssssssssscsssssssssssssssscsssscsssssssssssssssssssssssscsssssssssssssssssssssssssssssssscssssssssssssssssssccssssssssscsssscssscccsssssssscssssssssccssssssssssssssssccsssssssssssssssscsssssssssssssssssssssssssssccsssssssc" />
    <path
       inkscape:export-ydpi="96"
       inkscape:export-xdpi="96"
       id="path1467"
       d="m -519.63872,-369.68402 c 0.0558,0.0483 0.11133,0.0968 0.16691,0.14521 0.0227,-8e-4 0.0455,-8e-4 0.0682,-0.002 1.04594,-0.0403 3.98293,-1.28371 2.97037,-1.01854 -1.07162,0.28064 -2.13909,0.5751 -3.20549,0.87488 z"
       style="fill:#ffffff;fill-opacity:1;fill-rule:nonzero;stroke:none;stroke-width:1" />
    <path
       inkscape:export-ydpi="96"
       inkscape:export-xdpi="96"
       id="path1469"
       d="m -517.59343,-370.17505 c -0.1696,0.0169 -0.34005,0.0288 -0.51004,0.0429 -0.24305,0.23071 -0.32448,0.24169 0.51004,-0.0429 z"
       style="fill:#ffffff;fill-opacity:1;fill-rule:nonzero;stroke:none;stroke-width:1" />
    <path
       inkscape:export-ydpi="96"
       inkscape:export-xdpi="96"
       id="path1471"
       d="m -517.59343,-370.17504 c -0.83452,0.28457 -0.75309,0.27359 -0.51004,0.0429 0.16999,-0.0141 0.34044,-0.026 0.51004,-0.0429 z"
       style="fill:#ff0000;fill-opacity:1;fill-rule:nonzero;stroke:none;stroke-width:1" />
    <path
       sodipodi:nodetypes="csssssscssscsssscsssssssssssssssscssscscsscsssssssssssssscssssssssssscsssssssssssssscssssssssssssssssssssssssssssssssscssccscsccsscsssssssssssssssssscsssssssssssssssscsssscsssssssssssssssssssssssscsssssssssssssssssssssssssssssssscssssssssssssssssssccssssssssscsssscssscccsssssssscssssssssccssssssssssssssssccsssssssssssssssscsssssssssssssssssssssssssssccsssssssc"
       style="display:inline;fill:#000000;stroke-width:0.168921"
       d="m 717.00367,-38.805365 c -0.7795,-0.20794 -1.69253,-0.62512 -2.35846,-1.07763 -1.04709,-0.71152 -2.96908,-2.64725 -4.14601,-4.17566 -0.32193,-0.41808 -0.66244,-0.84629 -0.75668,-0.95158 -0.1745,-0.19493 -2.05731,-2.99444 -4.86252,-7.229928 -0.8574,-1.294571 -1.64642,-2.381595 -1.75336,-2.415625 -0.22511,-0.0716 -0.46346,1.268701 -0.74844,4.208996 -0.14079,1.452487 -0.14192,2.340257 -0.004,3.363047 0.36809,2.7351 0.28672,3.02509 -0.84872,3.02509 -1.05325,0 -2.00119,-0.85232 -2.56134,-2.30298 -0.42822,-1.10896 -0.68173,-4.106577 -0.56266,-6.653272 l 0.10676,-2.283898 -1.02298,-0.19441 c -1.58034,-0.300327 -2.80714,-1.420551 -2.98181,-2.722732 -0.0698,-0.520317 -0.006,-0.706047 0.37239,-1.084444 0.63296,-0.632977 2.09067,-1.143524 3.26491,-1.143524 h 0.97235 l 0.19625,-0.971284 c 0.10794,-0.534217 0.3176,-1.655421 0.4659,-2.491578 0.28842,-1.626261 0.6762,-3.602929 0.93662,-4.774403 0.0881,-0.396187 0.16012,-0.859494 0.16012,-1.029574 0,-0.566377 0.59934,-0.916614 1.56851,-0.916614 1.21855,0 2.22648,0.586217 2.75507,1.602381 0.39314,0.755757 0.43344,0.452517 -1.00547,7.567548 -0.44532,2.202038 -0.51632,2.798562 -0.33816,2.841402 0.22738,0.0547 2.51286,-1.387601 3.60797,-2.276845 1.18724,-0.964067 2.92945,-2.700645 3.69336,-3.681379 1.97361,-2.533868 2.67442,-4.203149 2.84012,-6.764984 0.12203,-1.886778 0.24664,-2.097188 1.24726,-2.106128 0.69922,-0.007 1.26163,0.439127 1.6113,1.276004 0.55576,1.330101 0.3111,3.996946 -0.5165,5.630127 -0.32294,0.637297 -0.3818,0.885327 -0.22298,0.939584 0.50817,0.17362 5.51286,0.594907 7.06724,0.594907 h 1.69628 l 0.22921,-0.548987 c 0.23393,-0.560327 1.00903,-3.318559 1.31657,-4.685063 0.24562,-1.091444 0.57631,-1.522751 1.16752,-1.522751 1.15441,0 2.17107,1.080354 2.16477,2.300358 -0.002,0.360667 -0.19037,1.377881 -0.41891,2.260488 -0.22854,0.882604 -0.41706,1.747108 -0.41892,1.921128 -0.003,0.305447 0.18234,0.311787 5.35984,0.18331 2.94979,-0.0732 5.6673,-0.13957 6.03892,-0.14747 l 0.67569,-0.0144 0.25431,-1.266894 c 0.13986,-0.696794 0.31539,-1.361911 0.39004,-1.478041 0.3724,-0.579337 2.8741,0.0507 3.31412,0.834664 0.23056,0.41077 0.21127,0.602447 -0.22916,2.277368 -2.42315,9.215289 -2.96917,11.992341 -2.96917,15.101306 0,1.16695 0.0525,1.50806 0.23227,1.50806 0.12774,0 0.28036,-0.24047 0.33915,-0.53438 0.30993,-1.549717 2.6135,-7.331904 3.27789,-8.227871 0.40484,-0.545957 0.45731,-0.565507 1.2621,-0.470187 0.91884,0.10882 2.05114,0.594277 2.61807,1.122454 0.52089,0.485277 0.70129,1.308734 0.52188,2.382198 -0.084,0.502457 -0.22634,1.445661 -0.31636,2.095998 -0.09,0.650344 -0.23533,1.600521 -0.32292,2.111498 -0.86581,5.05125 -0.87934,5.17312 -0.82531,7.42995 l 0.0545,2.27786 -0.4223,0.20055 c -0.50925,0.24187 -1.6444,0.068 -2.28161,-0.34957 -1.26406,-0.82825 -1.40472,-2.41486 -0.58532,-6.60267 0.0909,-0.46453 0.27647,-1.41471 0.4124,-2.11151 0.13592,-0.6968 0.43973,-2.193244 0.67516,-3.325428 0.53254,-2.561295 0.54878,-3.406959 0.0751,-3.915346 -0.47404,-0.508807 -0.68844,-0.39597 -0.94112,0.495327 -0.11676,0.411837 -0.51958,1.774968 -0.89516,3.029202 -0.88339,2.950075 -1.52711,5.508245 -1.52711,6.068715 0,1.02368 -0.74666,1.43314 -2.139,1.17303 -1.40541,-0.26257 -2.1127,-1.45665 -2.39051,-4.03586 l -0.13608,-1.263307 -0.32771,0.570977 c -1.85987,3.24054 -3.32412,4.55544 -5.24449,4.70959 -0.8691,0.0697 -1.15271,0.023 -1.62292,-0.26761 -0.84449,-0.52192 -1.41785,-1.23969 -1.94077,-2.42958 -0.44345,-1.00902 -0.46692,-1.19196 -0.46169,-3.596891 0.006,-2.453685 0.0228,-2.577305 0.55184,-3.909556 0.85551,-2.154408 2.15607,-3.976839 3.23694,-4.535776 0.59396,-0.307147 1.89081,-0.480017 2.53674,-0.338147 0.44752,0.0983 0.61156,0.275777 0.96157,1.040274 0.52965,1.156894 0.73489,2.928982 0.33922,2.928982 -0.3084,0 -0.79567,-0.443567 -0.79567,-0.724324 0,-0.438307 -0.56887,-1.640551 -0.77626,-1.640551 -0.42492,0 -1.07557,0.921514 -1.48666,2.105568 -0.78539,2.262208 -1.01698,3.600379 -1.02419,5.918137 -0.006,1.916054 0.0373,2.271314 0.33925,2.787174 0.64098,1.09491 2.19978,0.77828 3.54735,-0.72055 1.14947,-1.27849 2.38383,-3.945195 2.52038,-5.445036 0.18504,-2.032608 0.40627,-3.241842 1.36848,-7.480288 0.34342,-1.512791 0.5874,-2.787542 0.54217,-2.832772 -0.0452,-0.0452 -0.7205,0.072 -1.50063,0.260397 -1.71351,0.413917 -5.85792,1.097394 -8.17521,1.348224 -3.13035,0.338817 -2.90578,0.251347 -3.19187,1.243231 -2.11352,7.327548 -2.87343,12.096314 -2.48196,15.575234 0.11094,0.98594 0.27372,1.98203 0.36173,2.21352 0.31466,0.8276 0.21453,1.07459 -0.43564,1.07459 -1.30722,0 -2.68934,-2.17466 -3.10892,-4.89162 -0.10701,-0.69289 -0.22277,-1.28802 -0.25724,-1.32249 -0.0344,-0.0344 -0.48575,0.57044 -1.00282,1.34427 -1.10445,1.65289 -1.86987,2.24927 -2.83731,2.21069 -1.99324,-0.0795 -3.16759,-2.21183 -3.17496,-5.764954 -0.003,-1.618218 0.5635,-5.798727 0.9478,-6.989868 0.25117,-0.778527 0.27873,-0.802377 0.9277,-0.802377 0.81195,0 1.90202,0.527747 2.27925,1.103454 0.29459,0.449597 0.27831,0.850917 -0.11967,2.950615 -0.289,1.524721 -0.29635,6.1549 -0.011,6.96796 0.12224,0.3484 0.32123,0.63345 0.4422,0.63345 0.28177,0 1.21321,-1.15073 1.98258,-2.44935 0.52774,-0.890787 0.62486,-1.238164 0.80202,-2.868615 0.1879,-1.729361 0.67987,-4.262736 1.27188,-6.549421 0.62583,-2.417338 0.73306,-2.912595 0.65719,-3.035365 -0.0446,-0.0721 -0.76307,-0.131117 -1.59666,-0.131117 -1.28858,0 -1.53223,0.0443 -1.62654,0.295607 -0.34673,0.924034 -1.69286,0.970604 -3.39805,0.11753 -1.38265,-0.691697 -1.88589,-1.236244 -1.88589,-2.040658 0,-0.723587 -0.18394,-0.717647 -0.74978,0.0242 -1.17043,1.534501 -5.03634,4.9817 -5.5868,4.9817 -0.0771,0 -0.26028,0.10806 -0.40695,0.24011 -0.14668,0.132067 -1.12333,0.671774 -2.17034,1.199351 l -1.90368,0.959237 0.68414,0.785454 c 0.76226,0.875167 3.76501,4.588096 4.33313,5.35799 0.64556,0.874827 1.52194,2.030847 1.79337,2.365627 3.81647,4.70713 5.40967,5.9868 7.44879,5.98294 0.38317,-4.8e-4 1.26679,-0.13627 1.96359,-0.3012 1.4914,-0.35303 1.85836,-0.31585 1.85749,0.18822 -8.3e-4,0.85829 -1.50205,2.5204 -2.87102,3.18005 -0.82407,0.39709 -2.14895,0.54473 -2.95611,0.32942 z m -18.32054,-18.302381 c 0.003,-0.116137 0.0689,-0.528827 0.14405,-0.917104 0.0752,-0.388267 0.0797,-0.798204 0.01,-0.910974 -0.21103,-0.341447 -1.5582,-0.456887 -2.41532,-0.20697 -1.6424,0.478907 -1.36124,1.727451 0.48026,2.132658 0.75585,0.16633 1.77377,0.11053 1.78102,-0.0976 z m 74.14885,11.939391 c -2.54668,-1.11781 -2.81318,-3.98838 -1.017,-10.954604 0.28063,-1.088404 0.50688,-2.068801 0.50278,-2.178648 -0.011,-0.29197 -0.5331,0.747784 -1.34189,2.671915 -3.71029,8.826927 -4.26197,9.938297 -4.97471,10.021707 -1.34954,0.15792 -2.28223,-0.75322 -2.70519,-2.64271 -0.4315,-1.92771 -0.40002,-1.88533 -0.90134,-1.21343 -2.00225,2.68355 -4.26841,3.66699 -6.62365,2.87444 -1.68739,-0.56782 -2.59612,-1.34408 -3.38208,-2.88904 -1.07893,-2.120841 -0.72429,-4.924916 1.04323,-8.248735 1.52598,-2.869635 2.8332,-3.875339 5.05861,-3.891869 2.40932,-0.0179 3.38469,1.106004 3.12865,3.605059 -0.16932,1.652581 -0.56811,2.610285 -1.45717,3.499332 -0.91276,0.912754 -1.59169,1.100731 -3.31075,0.916644 l -1.08049,-0.11572 V -52.44 c 0,1.465901 0.40453,2.748295 1.14778,3.638595 0.41435,0.49633 0.60046,0.58129 1.42257,0.64946 0.76015,0.0631 1.1019,4.8e-4 1.74072,-0.31854 0.81949,-0.40927 2.36961,-1.953767 2.61886,-2.609364 0.0776,-0.20405 0.18399,-1.497071 0.23645,-2.873375 0.0525,-1.376301 0.1592,-2.566165 0.23718,-2.644145 0.25084,-0.250827 2.27566,-0.188977 2.93683,0.0897 0.83995,0.35405 0.91858,0.768307 0.58017,3.056615 -0.39833,2.693452 -0.5248,4.324759 -0.33531,4.324759 0.16218,0 0.24699,-0.17199 1.29117,-2.618261 0.90746,-2.125998 2.78029,-5.778827 3.60344,-7.028268 0.87279,-1.324824 1.83919,-2.318088 2.39149,-2.458028 0.98497,-0.249537 2.95967,0.497227 3.14019,1.187504 0.0996,0.380937 -0.10948,1.289654 -0.99615,4.329176 -1.37648,4.718633 -1.6674,6.404767 -1.57383,9.121687 l 0.0553,1.60476 -0.4223,0.0393 c -0.23226,0.0217 -0.68836,-0.0774 -1.01353,-0.22006 z m -13.98439,-9.90015 c 1.16221,-1.353034 1.33004,-4.195776 0.24753,-4.192346 -0.3972,8.3e-4 -1.29782,0.678984 -1.77178,1.333281 -0.56681,0.782437 -1.4604,3.120552 -1.32625,3.470129 0.12684,0.33056 1.08572,0.40573 1.80094,0.1412 0.32517,-0.12026 0.79748,-0.458787 1.04956,-0.752264 z M 686.0067,-75.183201 c -4.21133,-0.542127 -6.60441,-4.073339 -6.81826,-10.060963 -0.04,-1.119964 0.28314,-4.961473 0.495,-5.884617 0.55761,-2.429648 2.17981,-5.966687 3.705,-8.078375 1.71055,-2.368334 4.76226,-5.172134 6.88553,-6.326174 2.59786,-1.41199 5.76542,-1.93938 7.27091,-1.21059 0.61265,0.29657 0.8247,0.52406 1.11281,1.19377 0.42762,0.99406 0.44424,1.65769 0.0818,3.26521 -0.71702,3.180024 -3.91172,7.924797 -5.04341,7.49054 -0.46806,-0.17961 -0.25494,-1.122854 0.99795,-4.416626 0.96632,-2.540394 1.48685,-4.577434 1.3476,-5.273654 -0.27177,-1.35885 -2.59634,-0.60253 -4.72787,1.53825 -3.23667,3.250737 -5.5753,8.510697 -6.24209,14.039517 -0.64175,5.321277 0.0154,9.860923 1.68744,11.656374 0.96556,1.036834 1.39673,1.022274 2.26529,-0.0765 0.89577,-1.133214 2.45402,-4.223116 3.23121,-6.407214 0.70238,-1.973891 0.88146,-2.130958 1.85535,-1.627351 1.20346,0.622337 1.48052,2.000128 0.77769,3.867349 -1.82883,4.85873 -4.64113,6.857021 -8.88193,6.311104 z m 21.96461,-0.569897 c -1.13162,-0.475807 -1.83689,-1.925021 -2.29048,-4.706533 -0.0605,-0.37092 -0.14886,-0.737317 -0.1964,-0.814207 -0.0476,-0.0769 -0.4777,0.512737 -0.95595,1.310314 -1.03883,1.732458 -1.70602,2.487675 -2.55263,2.889412 -0.54022,0.25636 -0.76929,0.27263 -1.61748,0.11489 -0.54348,-0.10107 -1.22816,-0.360197 -1.5215,-0.575837 -2.2518,-1.655311 -1.84908,-6.961461 0.87201,-11.488894 0.9339,-1.553861 1.90347,-2.576835 3.10545,-3.276482 0.82472,-0.480067 0.90098,-0.491637 3.23934,-0.491637 2.17069,0 2.43935,0.0333 2.87165,0.355497 0.71534,0.533227 1.0376,1.211884 1.16475,2.452928 0.10347,1.009964 0.0787,1.154851 -0.25492,1.488441 -0.57711,0.577097 -0.76156,0.360227 -0.86441,-1.016304 -0.14326,-1.917451 -0.54043,-2.373188 -1.77189,-2.033158 -1.21146,0.334487 -2.55529,1.633108 -3.75315,3.626879 -1.51963,2.529325 -2.62524,6.846491 -2.32061,9.061459 0.15207,1.105561 0.58985,1.399711 1.21598,0.816994 0.84273,-0.784317 2.77391,-5.23947 3.2765,-7.558778 0.19362,-0.893524 0.32364,-1.139054 0.74278,-1.402751 0.71428,-0.449367 2.34004,-0.354447 3.09131,0.1805 0.65176,0.464087 0.65957,0.587364 0.27167,4.288633 -0.14858,1.417664 -0.22298,2.984645 -0.16536,3.482162 0.10635,0.918204 0.34085,1.544741 0.57814,1.544741 0.15191,0 1.44256,-2.148028 2.19674,-3.656079 0.46592,-0.931594 0.53714,-1.286014 0.69602,-3.462852 0.26065,-3.571499 0.85283,-6.637511 1.55546,-8.053442 0.38623,-0.778317 0.40433,-0.790147 1.17023,-0.765297 1.07239,0.0349 1.81129,0.455197 2.12662,1.209874 0.24682,0.590737 0.23344,0.717544 -0.27068,2.564815 -0.51891,1.901348 -0.86556,4.141476 -0.84969,5.49066 0.007,0.660514 0.0175,0.649144 0.43541,-0.506767 0.43161,-1.193864 0.50945,-1.377514 1.68245,-3.969609 0.89899,-1.986608 2.16598,-4.114146 2.86825,-4.816433 0.48756,-0.487557 0.71171,-0.588687 1.3013,-0.587157 1.24269,0.003 1.96386,0.19787 2.42162,0.653517 0.42892,0.426947 0.4413,0.493437 0.34969,1.878428 -0.14279,2.158828 -0.75985,3.709489 -1.74467,4.384296 -0.47515,0.32557 -0.70217,0.372957 -1.35688,0.28322 -0.43244,-0.0593 -1.02091,-0.24573 -1.30769,-0.41436 -0.61377,-0.360887 -0.6569,-0.866904 -0.20847,-2.445515 0.15304,-0.538737 0.27826,-1.023124 0.27826,-1.076424 0,-0.215117 -0.5014,0.337117 -0.60637,0.667847 -0.062,0.195267 -0.40698,0.835864 -0.76668,1.423541 -0.3597,0.587677 -0.654,1.105324 -0.654,1.150314 0,0.0451 -0.36919,0.860784 -0.82043,1.812911 -1.74652,3.685219 -2.22543,5.931174 -1.71679,8.051392 0.26381,1.099684 0.0821,1.365564 -0.93338,1.365564 -0.53808,0 -0.86344,-0.11522 -1.25453,-0.444297 -0.64759,-0.544907 -1.30974,-1.812811 -1.45885,-2.793445 -0.17164,-1.128784 -0.29138,-1.223104 -0.65778,-0.518077 -0.60873,1.171344 -1.85387,2.990902 -2.46574,3.603279 -0.81842,0.819064 -1.4468,1.027684 -2.17422,0.721827 z m 72.78232,-0.2874 c -0.66168,-0.296927 -0.99589,-0.625227 -0.99589,-0.978244 0,-0.20893 0.12029,-0.317157 0.35247,-0.317157 1.0829,0 6.35279,-4.805583 5.96248,-5.43713 -0.0466,-0.0755 -0.7169,-0.13723 -1.48944,-0.13723 -1.55041,0 -2.54563,-0.273817 -3.4205,-0.941094 -0.89521,-0.682827 -1.11921,-1.283944 -1.02959,-2.763115 0.0652,-1.075114 0.19138,-1.508381 0.79219,-2.718805 0.86377,-1.740148 2.17382,-3.400149 3.28501,-4.162536 0.78492,-0.538527 0.88915,-0.563167 2.38355,-0.563167 2.13572,0 3.00773,0.14308 3.56104,0.584267 0.64049,0.510707 0.64109,1.512541 0.002,2.814885 -0.67144,1.367561 -3.00915,3.765329 -3.34428,3.430199 -0.0889,-0.0889 0.18749,-1.480091 0.55457,-2.791442 0.29642,-1.058884 0.16069,-1.376324 -0.49129,-1.149044 -1.63941,0.571497 -3.8629,4.379606 -3.23846,5.546387 0.15986,0.29868 0.34895,0.34888 1.32083,0.3506 1.79207,0.003 3.70588,0.630894 4.08538,1.339991 0.34128,0.637687 0.19715,1.736991 -0.35368,2.697595 -0.68274,1.190634 -2.78235,3.275952 -4.32574,4.296286 -1.68763,1.115704 -2.61337,1.346161 -3.61033,0.898754 z m -11.34389,-0.861164 c -1.95015,-0.695887 -2.71528,-2.298658 -2.45232,-5.13705 0.19996,-2.158318 0.92136,-5.66829 1.75881,-8.557402 0.086,-0.29687 0.0691,-0.30711 -0.14038,-0.0845 -0.25492,0.271057 -0.82495,1.547261 -3.01794,6.756801 -0.76264,1.811661 -1.65312,3.826029 -1.97885,4.476376 -0.32573,0.650344 -0.67649,1.355621 -0.77949,1.567301 -0.24397,0.501347 -0.81644,0.636914 -1.64334,0.389177 -1.10656,-0.331537 -1.86742,-1.670311 -2.26394,-3.983519 l -0.11582,-0.675684 -0.44698,0.591217 c -1.7831,2.358475 -3.44695,3.420969 -5.34009,3.410049 -2.80391,-0.0162 -5.05083,-1.815868 -5.76952,-4.621143 -0.62693,-2.447185 0.68285,-6.703491 2.9283,-9.515896 1.00586,-1.259824 1.9368,-1.752771 3.56843,-1.889571 2.49033,-0.208777 3.55356,0.542437 3.70189,2.615518 0.24963,3.488739 -1.70247,6.174094 -4.27469,5.880394 -0.46944,-0.0536 -1.09656,-0.146067 -1.39361,-0.205477 l -0.54007,-0.10801 0.004,1.161314 c 0.006,1.605941 0.24896,2.529795 0.94296,3.581369 1.02825,1.558011 2.26781,1.722271 4.0879,0.541697 0.84499,-0.548107 1.85512,-1.572601 2.28644,-2.318978 0.17977,-0.311097 0.49379,-4.90669 0.36951,-5.407987 -0.14436,-0.582287 0.4264,-0.785507 1.89432,-0.674487 1.26476,0.0956 1.99522,0.402257 2.19429,0.921064 0.0582,0.15173 -0.0212,1.154484 -0.17656,2.228348 -0.39406,2.724355 -0.54632,5.03897 -0.31734,4.824113 0.099,-0.0929 0.56968,-1.081094 1.04594,-2.195968 1.84893,-4.328236 3.92874,-8.091895 5.36656,-9.711456 0.52598,-0.592457 0.75868,-0.723854 1.4121,-0.797404 0.85762,-0.0965 1.83306,0.15633 2.55385,0.662007 0.61157,0.429047 0.60498,0.973234 -0.0399,3.298389 -0.27743,1.000294 -0.811,2.919585 -1.18573,4.265106 -0.87215,3.131742 -1.21621,6.686334 -0.77928,8.051055 0.0752,0.23496 0.0207,0.457587 -0.15518,0.633457 -0.32325,0.323237 -0.47238,0.326647 -1.30442,0.0297 z m -15.86857,-9.624326 c 1.40526,-0.731157 2.44886,-3.321252 1.90381,-4.725023 -0.17192,-0.442757 -0.24329,-0.477127 -0.80232,-0.386417 -1.09921,0.178377 -2.0987,1.476221 -2.8595,3.713069 -0.38593,1.134664 -0.39376,1.225521 -0.1225,1.423851 0.38502,0.281537 1.31465,0.268937 1.88051,-0.0255 z m -26.31565,9.043789 c -0.8902,-0.935784 -1.10217,-1.843901 -1.08957,-4.667923 0.0188,-4.203006 0.20747,-7.061411 0.47614,-7.211761 0.46761,-0.261677 2.20421,0.0523 2.90188,0.524717 0.81501,0.551837 0.88268,0.959507 0.50176,3.022765 -0.66234,3.587609 -0.81458,4.762273 -0.61717,4.762273 0.0837,0 0.20245,-0.26833 0.26397,-0.596277 0.1985,-1.058044 1.93627,-6.123397 2.62717,-7.657768 0.97896,-2.174128 1.50957,-3.060132 2.31522,-3.865966 0.5915,-0.591627 0.82997,-0.717787 1.35565,-0.717267 2.59477,0.002 3.20162,3.345452 1.80389,9.936913 -0.4686,2.209818 -0.45622,2.106838 -0.23689,1.971278 0.0929,-0.0574 0.6904,-1.154211 1.32773,-2.437315 1.31253,-2.642365 2.2512,-4.137246 2.84025,-4.523213 0.49458,-0.32405 2.04616,-0.18972 2.77389,0.240157 0.82242,0.485817 0.92845,1.036164 0.52361,2.717875 -0.62183,2.583055 -0.73333,3.574709 -0.68999,6.136094 0.0233,1.378804 -0.008,2.557598 -0.0702,2.619545 -0.0619,0.0619 -0.32274,0.10653 -0.57954,0.0991 -1.90363,-0.0553 -2.9149,-2.076528 -2.96287,-5.921807 -0.0129,-1.036174 -0.0788,-1.827518 -0.14639,-1.758538 -0.0676,0.069 -0.54355,1.037594 -1.05771,2.152458 -1.15752,2.509895 -2.08175,4.208536 -2.58579,4.752403 -0.32738,0.353247 -0.47962,0.398067 -1.01915,0.300027 -1.01344,-0.184127 -1.77443,-0.615707 -2.20714,-1.251731 -0.36349,-0.534237 -0.392,-0.707797 -0.29584,-1.800901 0.10779,-1.225624 0.15933,-1.497061 1.08511,-5.716027 0.83764,-3.817389 1.06388,-5.68676 0.71437,-5.902787 -0.4891,-0.30227 -1.18376,0.652477 -1.95963,2.693305 -0.24724,0.650347 -0.55116,1.448491 -0.6754,1.773658 -0.12423,0.32517 -0.53743,1.655411 -0.91821,2.956105 -1.24068,4.237856 -1.54175,5.223 -1.87599,6.138364 -0.18112,0.496027 -0.32931,1.123134 -0.32931,1.393594 0,0.472597 -0.0306,0.491737 -0.78631,0.491737 -0.69306,0 -0.85995,-0.0774 -1.40753,-0.653067 z m 49.32274,-18.595565 c 0,-0.274177 0.11681,-0.939304 0.25962,-1.478051 0.14279,-0.538747 0.30654,-1.891701 0.36389,-3.006565 l 0.10427,-2.02706 0.62976,-0.63345 c 0.52593,-0.52902 0.74529,-0.63345 1.3306,-0.63345 0.46045,0 0.73352,0.0851 0.79605,0.24804 0.16375,0.42671 -0.29726,4.515774 -0.63119,5.598638 -0.38054,1.234021 -0.85548,1.882648 -1.60904,2.197508 -0.9143,0.382007 -1.24396,0.311617 -1.24396,-0.26561 z"
       id="path1457" />
  </g>
  <g
     inkscape:label="ExtraStuff"
     id="layer6"
     inkscape:groupmode="layer">
    <path
       inkscape:transform-center-y="-101.30478"
       inkscape:transform-center-x="36.642154"
       sodipodi:nodetypes="csssssscssscsssscsssssssssssssssscssscscsscsssssssssssssscssssssssssscsssssssssssssscssssssssssssssssssssssssssssssssscssccscsccsscsssssssssssssssssscsssssssssssssssscsssscsssssssssssssssssssssssscsssssssssssssssssssssssssssssssscssssssssssssssssssccssssssssscsssscssscccsssssssscssssssssccssssssssssssssssccsssssssssssssssscsssssssssssssssssssssssssssccsssssssc"
       style="display:inline;fill:#000000;stroke-width:0.168921"
       d="m 352.84348,93.494725 c -0.7795,-0.20794 -1.6925,-0.62512 -2.3585,-1.07763 -1.0471,-0.71152 -2.969,-2.64725 -4.146,-4.17566 -0.3219,-0.41808 -0.6624,-0.84629 -0.7567,-0.95158 -0.1745,-0.19493 -2.0573,-2.99444 -4.8625,-7.22994 -0.8574,-1.29458 -1.6464,-2.38161 -1.7533,-2.41564 -0.2251,-0.0716 -0.4635,1.26871 -0.7485,4.20902 -0.1408,1.45249 -0.1419,2.34026 0,3.36305 0.3681,2.7351 0.2867,3.02509 -0.8487,3.02509 -1.0532,0 -2.0012,-0.85232 -2.5613,-2.30298 -0.4283,-1.10896 -0.6818,-4.10658 -0.5627,-6.65329 l 0.1068,-2.28391 -1.023,-0.19441 c -1.5804,-0.30033 -2.8072,-1.42056 -2.9818,-2.72275 -0.07,-0.52032 -0.01,-0.70605 0.3724,-1.08445 0.6329,-0.63298 2.0906,-1.14353 3.2649,-1.14353 h 0.9723 l 0.1963,-0.97129 c 0.1079,-0.53422 0.3176,-1.65543 0.4659,-2.49159 0.2884,-1.62627 0.6762,-3.60295 0.9366,-4.77443 0.088,-0.39619 0.1601,-0.8595 0.1601,-1.02958 0,-0.56638 0.5994,-0.916616 1.5685,-0.916616 1.2186,0 2.2265,0.586216 2.7551,1.602386 0.3931,0.75576 0.4334,0.45252 -1.0055,7.56759 -0.4453,2.20205 -0.5163,2.79858 -0.3381,2.84142 0.2273,0.0547 2.5128,-1.38761 3.6079,-2.27686 1.1873,-0.96407 2.9295,-2.70066 3.6934,-3.6814 1.9736,-2.53388 2.6744,-4.20317 2.8401,-6.765016 0.122,-1.88679 0.2467,-2.0972 1.2473,-2.10614 0.6992,-0.007 1.2616,0.43913 1.6113,1.27601 0.5557,1.33011 0.3111,3.996966 -0.5165,5.630156 -0.323,0.6373 -0.3818,0.88533 -0.223,0.93959 0.5082,0.17362 5.5129,0.59491 7.0672,0.59491 h 1.6963 l 0.2292,-0.54899 c 0.234,-0.56033 1.0091,-3.31858 1.3166,-4.68509 0.2456,-1.091446 0.5763,-1.522756 1.1675,-1.522756 1.1544,0 2.1711,1.08036 2.1648,2.300366 0,0.36067 -0.1904,1.37789 -0.4189,2.2605 -0.2286,0.88261 -0.4171,1.74712 -0.4189,1.92114 0,0.30545 0.1823,0.31179 5.3598,0.18331 2.9498,-0.0732 5.6673,-0.13957 6.0389,-0.14747 l 0.6757,-0.0144 0.2543,-1.2669 c 0.1399,-0.6968 0.3154,-1.36192 0.39,-1.47805 0.3724,-0.57934 2.8741,0.0507 3.3142,0.83467 0.2305,0.41077 0.2112,0.60245 -0.2292,2.27738 -2.4231,9.21534 -2.9692,11.99241 -2.9692,15.10139 0,1.16695 0.053,1.50806 0.2323,1.50806 0.1277,0 0.2804,-0.24047 0.3392,-0.53438 0.3099,-1.54972 2.6135,-7.33194 3.2778,-8.22791 0.4049,-0.54596 0.4574,-0.56551 1.2621,-0.47019 0.9189,0.10882 2.0512,0.59428 2.6181,1.12246 0.5209,0.48528 0.7013,1.30874 0.5219,2.38221 -0.084,0.50246 -0.2263,1.44567 -0.3164,2.09601 -0.09,0.65035 -0.2353,1.60053 -0.3229,2.11151 -0.8658,5.05125 -0.8793,5.17312 -0.8253,7.42995 l 0.054,2.27786 -0.4223,0.20055 c -0.5092,0.24187 -1.6444,0.068 -2.2816,-0.34957 -1.2641,-0.82825 -1.4047,-2.41486 -0.5853,-6.60267 0.091,-0.46453 0.2764,-1.41471 0.4124,-2.11151 0.1359,-0.6968 0.4397,-2.19325 0.6751,-3.32544 0.5326,-2.56131 0.5488,-3.40698 0.075,-3.91537 -0.474,-0.50881 -0.6884,-0.39597 -0.9411,0.49533 -0.1167,0.41184 -0.5196,1.77498 -0.8951,3.02922 -0.8834,2.95009 -1.5272,5.50826 -1.5272,6.06873 0,1.02368 -0.7466,1.43314 -2.139,1.17303 -1.4054,-0.26257 -2.1127,-1.45665 -2.3905,-4.03586 l -0.136,-1.26331 -0.3278,0.57098 c -1.8598,3.24054 -3.3241,4.55544 -5.2444,4.70959 -0.8691,0.0697 -1.1528,0.023 -1.623,-0.26761 -0.8445,-0.52192 -1.4178,-1.23969 -1.9407,-2.42958 -0.4435,-1.00902 -0.4669,-1.19196 -0.4617,-3.5969 0.01,-2.4537 0.023,-2.57732 0.5518,-3.90958 0.8555,-2.15442 2.1561,-3.97686 3.237,-4.5358 0.5939,-0.30715 1.8908,-0.48002 2.5367,-0.33815 0.4475,0.0983 0.6116,0.27578 0.9616,1.04028 0.5296,1.1569 0.7349,2.929 0.3392,2.929 -0.3084,0 -0.7957,-0.44357 -0.7957,-0.72433 0,-0.43831 -0.5689,-1.64056 -0.7762,-1.64056 -0.425,0 -1.0756,0.92152 -1.4867,2.10558 -0.7854,2.26222 -1.017,3.6004 -1.0242,5.91817 -0.01,1.91606 0.037,2.27132 0.3393,2.78718 0.6409,1.09491 2.1997,0.77828 3.5473,-0.72055 1.1495,-1.27849 2.3838,-3.94521 2.5204,-5.44506 0.185,-2.03262 0.4063,-3.24186 1.3685,-7.48033 0.3434,-1.5128 0.5874,-2.78756 0.5421,-2.83279 -0.045,-0.0452 -0.7205,0.072 -1.5006,0.2604 -1.7135,0.41392 -5.8579,1.0974 -8.1752,1.34823 -3.1303,0.33882 -2.9058,0.25135 -3.1919,1.24324 -2.1135,7.32759 -2.8734,12.09638 -2.4819,15.5753 0.1109,0.98594 0.2737,1.98203 0.3617,2.21352 0.3147,0.8276 0.2145,1.07459 -0.4356,1.07459 -1.3073,0 -2.6894,-2.17466 -3.109,-4.89162 -0.107,-0.69289 -0.2227,-1.28802 -0.2572,-1.32249 -0.034,-0.0344 -0.4857,0.57044 -1.0028,1.34427 -1.1045,1.65289 -1.8699,2.24927 -2.8373,2.21069 -1.9933,-0.0795 -3.1676,-2.21183 -3.175,-5.76496 0,-1.61823 0.5635,-5.79876 0.9478,-6.98991 0.2512,-0.77853 0.2787,-0.80238 0.9277,-0.80238 0.812,0 1.902,0.52775 2.2793,1.10346 0.2946,0.4496 0.2783,0.85092 -0.1197,2.95063 -0.289,1.52473 -0.2964,6.15493 -0.011,6.96799 0.1222,0.3484 0.3212,0.63345 0.4422,0.63345 0.2818,0 1.2132,-1.15073 1.9826,-2.44935 0.5277,-0.89079 0.6248,-1.23817 0.802,-2.86863 0.1879,-1.72937 0.6799,-4.26276 1.2719,-6.54946 0.6258,-2.41735 0.733,-2.91261 0.6572,-3.03538 -0.045,-0.0721 -0.7631,-0.13112 -1.5967,-0.13112 -1.2886,0 -1.5322,0.0443 -1.6265,0.29561 -0.3468,0.92404 -1.6929,0.97061 -3.3981,0.11753 -1.3826,-0.6917 -1.8859,-1.23625 -1.8859,-2.04067 0,-0.72359 -0.1839,-0.71765 -0.7498,0.0242 -1.1704,1.53451 -5.0363,4.98173 -5.5868,4.98173 -0.077,0 -0.2602,0.10806 -0.4069,0.24011 -0.1467,0.13207 -1.1233,0.67178 -2.1703,1.19936 l -1.9037,0.95924 0.6841,0.78546 c 0.7623,0.87517 3.765,4.58812 4.3331,5.35802 0.6456,0.87483 1.522,2.03085 1.7934,2.36563 3.8165,4.70713 5.4097,5.9868 7.4488,5.98294 0.3832,-4.8e-4 1.2668,-0.13627 1.9636,-0.3012 1.4914,-0.35303 1.8584,-0.31585 1.8575,0.18822 -8e-4,0.85829 -1.5021,2.5204 -2.871,3.18005 -0.8241,0.39709 -2.149,0.54473 -2.9561,0.32942 z m -18.3205,-18.30242 c 0,-0.11614 0.069,-0.52883 0.144,-0.91711 0.075,-0.38827 0.08,-0.79821 0.01,-0.91098 -0.211,-0.34145 -1.5582,-0.45689 -2.4153,-0.20697 -1.6424,0.47891 -1.3613,1.72746 0.4802,2.13267 0.7559,0.16633 1.7738,0.11053 1.7811,-0.0976 z m 74.1488,11.93943 c -2.5467,-1.11781 -2.8132,-3.98838 -1.017,-10.95464 0.2806,-1.08841 0.5069,-2.06881 0.5028,-2.17866 -0.011,-0.29197 -0.5331,0.74779 -1.3419,2.67193 -3.7103,8.82696 -4.262,9.93833 -4.9747,10.02174 -1.3496,0.15792 -2.2823,-0.75322 -2.7052,-2.64271 -0.4315,-1.92771 -0.4,-1.88533 -0.9014,-1.21343 -2.0022,2.68355 -4.2684,3.66699 -6.6236,2.87444 -1.6874,-0.56782 -2.5961,-1.34408 -3.3821,-2.88904 -1.0789,-2.12085 -0.7243,-4.92494 1.0432,-8.24878 1.526,-2.86965 2.8332,-3.87536 5.0587,-3.89189 2.4093,-0.0179 3.3846,1.10601 3.1286,3.60508 -0.1693,1.65259 -0.5681,2.6103 -1.4572,3.49935 -0.9127,0.91276 -1.5917,1.10074 -3.3107,0.91665 l -1.0805,-0.11572 v 1.27402 c 0,1.46591 0.4045,2.74831 1.1478,3.63861 0.4143,0.49633 0.6004,0.58129 1.4225,0.64946 0.7602,0.0631 1.1019,4.8e-4 1.7408,-0.31854 0.8195,-0.40927 2.3696,-1.95377 2.6188,-2.60937 0.078,-0.20405 0.184,-1.49708 0.2365,-2.87339 0.053,-1.37631 0.1592,-2.56618 0.2372,-2.64416 0.2508,-0.25083 2.2756,-0.18898 2.9368,0.0897 0.8399,0.35405 0.9186,0.76831 0.5802,3.05663 -0.3984,2.69347 -0.5248,4.32478 -0.3354,4.32478 0.1622,0 0.247,-0.17199 1.2912,-2.61827 0.9075,-2.12601 2.7803,-5.77886 3.6035,-7.02831 0.8727,-1.32483 1.8391,-2.3181 2.3914,-2.45804 0.985,-0.24954 2.9597,0.49723 3.1402,1.18751 0.1,0.38094 -0.1094,1.28966 -0.9961,4.3292 -1.3765,4.71866 -1.6674,6.4048 -1.5738,9.12172 l 0.055,1.60476 -0.4223,0.0393 c -0.2323,0.0217 -0.6884,-0.0774 -1.0136,-0.22006 z m -13.9844,-9.90018 c 1.1622,-1.35304 1.33,-4.1958 0.2475,-4.19237 -0.3972,8.3e-4 -1.2978,0.67899 -1.7717,1.33329 -0.5669,0.78244 -1.4604,3.12057 -1.3263,3.47015 0.1268,0.33056 1.0857,0.40573 1.8009,0.1412 0.3252,-0.12026 0.7975,-0.45879 1.0496,-0.75227 z m -72.8409,-20.114806 c -4.2113,-0.54213 -6.6044,-4.07336 -6.8182,-10.06102 -0.04,-1.11997 0.2831,-4.9615 0.495,-5.88465 0.5576,-2.42966 2.1798,-5.96672 3.705,-8.07842 1.7105,-2.36834 4.7622,-5.17214 6.8855,-6.32618 2.5979,-1.41199 5.7654,-1.93938 7.2709,-1.21059 0.6127,0.29657 0.8247,0.52406 1.1128,1.19377 0.4276,0.99406 0.4443,1.65769 0.082,3.26521 -0.717,3.18003 -3.9117,7.92483 -5.0434,7.49057 -0.4681,-0.17961 -0.2549,-1.12286 0.998,-4.41665 0.9663,-2.5404 1.4868,-4.57744 1.3476,-5.27366 -0.2718,-1.35885 -2.5964,-0.60253 -4.7279,1.53825 -3.2367,3.25074 -5.5753,8.51073 -6.2421,14.03958 -0.6418,5.32131 0.015,9.86098 1.6874,11.65644 0.9656,1.03684 1.3968,1.02228 2.2653,-0.0765 0.8958,-1.13322 2.454,-4.22314 3.2312,-6.40725 0.7024,-1.9739 0.8815,-2.13097 1.8554,-1.62736 1.2034,0.62234 1.4805,2.00014 0.7777,3.86737 -1.8289,4.85876 -4.6412,6.85706 -8.882,6.31114 z m 21.9646,-0.5699 c -1.1316,-0.47581 -1.8369,-1.92503 -2.2904,-4.70656 -0.061,-0.37092 -0.1489,-0.73732 -0.1964,-0.81421 -0.048,-0.0769 -0.4777,0.51274 -0.956,1.31032 -1.0388,1.73247 -1.706,2.48769 -2.5526,2.88943 -0.5402,0.25636 -0.7693,0.27263 -1.6175,0.11489 -0.5435,-0.10107 -1.2282,-0.3602 -1.5215,-0.57584 -2.2518,-1.65532 -1.8491,-6.9615 0.872,-11.48896 0.9339,-1.55387 1.9035,-2.57685 3.1055,-3.2765 0.8247,-0.48007 0.9009,-0.49164 3.2393,-0.49164 2.1707,0 2.4393,0.0333 2.8716,0.3555 0.7154,0.53323 1.0376,1.21189 1.1648,2.45294 0.1035,1.00997 0.079,1.15486 -0.2549,1.48845 -0.5771,0.5771 -0.7616,0.36023 -0.8644,-1.01631 -0.1433,-1.91746 -0.5405,-2.3732 -1.7719,-2.03317 -1.2115,0.33449 -2.5553,1.63312 -3.7532,3.6269 -1.5196,2.52934 -2.6252,6.84653 -2.3206,9.06151 0.1521,1.10557 0.5899,1.39972 1.216,0.817 0.8427,-0.78432 2.7739,-5.2395 3.2765,-7.55882 0.1936,-0.89353 0.3236,-1.13906 0.7428,-1.40276 0.7143,-0.44937 2.34,-0.35445 3.0913,0.1805 0.6517,0.46409 0.6596,0.58737 0.2717,4.28866 -0.1486,1.41767 -0.223,2.98466 -0.1654,3.48218 0.1063,0.91821 0.3408,1.54475 0.5781,1.54475 0.1519,0 1.4426,-2.14804 2.1968,-3.6561 0.4659,-0.9316 0.5371,-1.28602 0.696,-3.46287 0.2606,-3.57152 0.8528,-6.63755 1.5555,-8.05349 0.3862,-0.77832 0.4043,-0.79015 1.1702,-0.7653 1.0724,0.0349 1.8113,0.4552 2.1266,1.20988 0.2468,0.59074 0.2334,0.71755 -0.2707,2.56483 -0.5189,1.90136 -0.8655,4.1415 -0.8497,5.49069 0.01,0.66052 0.017,0.64915 0.4354,-0.50677 0.4317,-1.19387 0.5095,-1.37752 1.6825,-3.96963 0.899,-1.98662 2.166,-4.11417 2.8682,-4.81646 0.4876,-0.48756 0.7118,-0.58869 1.3013,-0.58716 1.2427,0.003 1.9639,0.19787 2.4217,0.65352 0.4289,0.42695 0.4413,0.49344 0.3497,1.87844 -0.1428,2.15884 -0.7599,3.70951 -1.7447,4.38432 -0.4752,0.32557 -0.7022,0.37296 -1.3569,0.28322 -0.4324,-0.0593 -1.0209,-0.24573 -1.3077,-0.41436 -0.6138,-0.36089 -0.6569,-0.86691 -0.2085,-2.44553 0.1531,-0.53874 0.2783,-1.02313 0.2783,-1.07643 0,-0.21512 -0.5014,0.33712 -0.6064,0.66785 -0.062,0.19527 -0.4069,0.83587 -0.7666,1.42355 -0.3597,0.58768 -0.654,1.10533 -0.654,1.15032 0,0.0451 -0.3692,0.86079 -0.8205,1.81292 -1.7465,3.68524 -2.2254,5.93121 -1.7168,8.05144 0.2638,1.09969 0.082,1.36557 -0.9333,1.36557 -0.5381,0 -0.8635,-0.11522 -1.2546,-0.4443 -0.6476,-0.54491 -1.3097,-1.81282 -1.4588,-2.79346 -0.1717,-1.12879 -0.2914,-1.22311 -0.6578,-0.51808 -0.6087,1.17135 -1.8539,2.99092 -2.4657,3.6033 -0.8185,0.81907 -1.4468,1.02769 -2.1743,0.72183 z m 72.7823,-0.2874 c -0.6616,-0.29693 -0.9958,-0.62523 -0.9958,-0.97825 0,-0.20893 0.1202,-0.31716 0.3524,-0.31716 1.0829,0 6.3528,-4.80561 5.9625,-5.43716 -0.047,-0.0755 -0.7169,-0.13723 -1.4894,-0.13723 -1.5504,0 -2.5457,-0.27382 -3.4205,-0.9411 -0.8952,-0.68283 -1.1192,-1.28395 -1.0296,-2.76313 0.065,-1.07512 0.1914,-1.50839 0.7922,-2.71882 0.8637,-1.74016 2.1738,-3.40017 3.285,-4.16256 0.7849,-0.53853 0.8891,-0.56317 2.3835,-0.56317 2.1357,0 3.0078,0.14308 3.5611,0.58427 0.6405,0.51071 0.6411,1.51255 0,2.8149 -0.6715,1.36757 -3.0092,3.76535 -3.3443,3.43022 -0.089,-0.0889 0.1875,-1.4801 0.5546,-2.79146 0.2964,-1.05889 0.1606,-1.37633 -0.4913,-1.14905 -1.6394,0.5715 -3.8629,4.37963 -3.2385,5.54642 0.1599,0.29868 0.349,0.34888 1.3208,0.3506 1.7921,0.003 3.7059,0.6309 4.0854,1.34 0.3413,0.63769 0.1972,1.737 -0.3537,2.69761 -0.6827,1.19064 -2.7823,3.27597 -4.3257,4.29631 -1.6876,1.11571 -2.6134,1.34617 -3.6103,0.89876 z m -11.3438,-0.86117 c -1.9502,-0.69589 -2.7153,-2.29867 -2.4524,-5.13708 0.2,-2.15833 0.9214,-5.66832 1.7588,-8.55745 0.086,-0.29687 0.069,-0.30711 -0.1403,-0.0845 -0.255,0.27106 -0.825,1.54727 -3.018,6.75684 -0.7626,1.81167 -1.6531,3.82605 -1.9788,4.4764 -0.3258,0.65035 -0.6765,1.35563 -0.7795,1.56731 -0.244,0.50135 -0.8165,0.63692 -1.6434,0.38918 -1.1065,-0.33154 -1.8674,-1.67032 -2.2639,-3.98354 l -0.1158,-0.67569 -0.447,0.59122 c -1.7831,2.35849 -3.4469,3.42099 -5.3401,3.41007 -2.8039,-0.0162 -5.0508,-1.81588 -5.7695,-4.62117 -0.6269,-2.4472 0.6828,-6.70353 2.9283,-9.51595 1.0059,-1.25983 1.9368,-1.75278 3.5684,-1.88958 2.4904,-0.20878 3.5536,0.54244 3.7019,2.61553 0.2496,3.48876 -1.7025,6.17413 -4.2747,5.88043 -0.4694,-0.0536 -1.0965,-0.14607 -1.3936,-0.20548 l -0.5401,-0.10801 v 1.16132 c 0.01,1.60595 0.249,2.52981 0.943,3.58139 1.0283,1.55802 2.2678,1.72228 4.0879,0.5417 0.845,-0.54811 1.8551,-1.57261 2.2864,-2.31899 0.1798,-0.3111 0.4938,-4.90672 0.3696,-5.40802 -0.1444,-0.58229 0.4264,-0.78551 1.8943,-0.67449 1.2647,0.0956 1.9952,0.40226 2.1943,0.92107 0.058,0.15173 -0.021,1.15449 -0.1766,2.22836 -0.3941,2.72437 -0.5463,5.039 -0.3173,4.82414 0.099,-0.0929 0.5696,-1.0811 1.0459,-2.19598 1.8489,-4.32826 3.9287,-8.09194 5.3666,-9.71151 0.5259,-0.59246 0.7586,-0.72386 1.4121,-0.79741 0.8576,-0.0965 1.833,0.15633 2.5538,0.66201 0.6116,0.42905 0.605,0.97324 -0.04,3.29841 -0.2774,1.0003 -0.811,2.9196 -1.1857,4.26513 -0.8722,3.13176 -1.2162,6.68637 -0.7793,8.0511 0.075,0.23496 0.021,0.45759 -0.1552,0.63346 -0.3232,0.32324 -0.4724,0.32665 -1.3044,0.0297 z m -15.8686,-9.62438 c 1.4052,-0.73116 2.4488,-3.32127 1.9038,-4.72505 -0.1719,-0.44276 -0.2433,-0.47713 -0.8023,-0.38642 -1.0992,0.17838 -2.0987,1.47623 -2.8595,3.71309 -0.386,1.13467 -0.3938,1.22553 -0.1225,1.42386 0.385,0.28154 1.3146,0.26894 1.8805,-0.0255 z m -26.3157,9.04384 c -0.8902,-0.93579 -1.1021,-1.84391 -1.0895,-4.66795 0.019,-4.20303 0.2074,-7.06145 0.4761,-7.2118 0.4676,-0.26168 2.2042,0.0523 2.9019,0.52472 0.815,0.55184 0.8827,0.95951 0.5017,3.02278 -0.6623,3.58763 -0.8145,4.7623 -0.6171,4.7623 0.084,0 0.2024,-0.26833 0.264,-0.59628 0.1985,-1.05805 1.9362,-6.12343 2.6271,-7.65781 0.979,-2.17414 1.5096,-3.06015 2.3152,-3.86599 0.5915,-0.59163 0.83,-0.71779 1.3557,-0.71727 2.5948,0.002 3.2016,3.34547 1.8039,9.93697 -0.4686,2.20983 -0.4562,2.10685 -0.2369,1.97129 0.093,-0.0574 0.6904,-1.15422 1.3277,-2.43733 1.3125,-2.64238 2.2512,-4.13727 2.8403,-4.52324 0.4945,-0.32405 2.0461,-0.18972 2.7739,0.24016 0.8224,0.48582 0.9284,1.03617 0.5236,2.71789 -0.6219,2.58307 -0.7334,3.57473 -0.69,6.13613 0.023,1.37881 -0.01,2.55761 -0.07,2.61956 -0.062,0.0619 -0.3228,0.10653 -0.5796,0.0991 -1.9036,-0.0553 -2.9149,-2.07654 -2.9628,-5.92184 -0.013,-1.03618 -0.079,-1.82753 -0.1464,-1.75855 -0.068,0.069 -0.5436,1.0376 -1.0577,2.15247 -1.1576,2.50991 -2.0818,4.20856 -2.5858,4.75243 -0.3274,0.35325 -0.4796,0.39807 -1.0192,0.30003 -1.0134,-0.18413 -1.7744,-0.61571 -2.2071,-1.25174 -0.3635,-0.53424 -0.392,-0.7078 -0.2959,-1.80091 0.1078,-1.22563 0.1594,-1.49707 1.0852,-5.71606 0.8376,-3.81741 1.0638,-5.68679 0.7143,-5.90282 -0.4891,-0.30227 -1.1837,0.65248 -1.9596,2.69332 -0.2472,0.65035 -0.5512,1.4485 -0.6754,1.77367 -0.1242,0.32517 -0.5374,1.65542 -0.9182,2.95612 -1.2407,4.23788 -1.5418,5.22303 -1.876,6.1384 -0.1811,0.49603 -0.3293,1.12314 -0.3293,1.3936 0,0.4726 -0.031,0.49174 -0.7863,0.49174 -0.6931,0 -0.86,-0.0774 -1.4075,-0.65307 z m 49.3228,-18.59567 c 0,-0.27418 0.1168,-0.93931 0.2596,-1.47806 0.1428,-0.53875 0.3065,-1.89171 0.3639,-3.00658 l 0.1043,-2.02706 0.6297,-0.63345 c 0.5259,-0.52902 0.7453,-0.63345 1.3306,-0.63345 0.4605,0 0.7335,0.0851 0.7961,0.24804 0.1637,0.42671 -0.2973,4.51578 -0.6312,5.59865 -0.3806,1.23403 -0.8555,1.88266 -1.6091,2.19752 -0.9143,0.38201 -1.2439,0.31162 -1.2439,-0.26561 z"
       id="path41" />
    <ellipse
       style="fill:#ff0000;fill-opacity:1;stroke:#0b0b0b;stroke-width:2.30577;stroke-miterlimit:4;stroke-dasharray:none;stroke-opacity:0.98"
       id="path1479"
       cx="364.7677"
       cy="202.71873"
       rx="97.524681"
       ry="83.683685" />
  </g>
</svg>
